<?xml version="1.0" encoding="UTF-8" standalone="no"?>
<!DOCTYPE svg PUBLIC "-//W3C//DTD SVG 1.1//EN"
 "http://www.w3.org/Graphics/SVG/1.1/DTD/svg11.dtd">
<!-- Generated by graphviz version 2.40.1 (20161225.0304)
 -->
<!-- Title: G Pages: 1 -->
<svg width="812pt" height="590pt"
 viewBox="0.00 0.00 812.07 590.33" xmlns="http://www.w3.org/2000/svg" xmlns:xlink="http://www.w3.org/1999/xlink">
<g id="graph0" class="graph" transform="scale(1 1) rotate(0) translate(4 586.3283)">
<title>G</title>
<polygon fill="#ffffff" stroke="transparent" points="-4,4 -4,-586.3283 808.072,-586.3283 808.072,4 -4,4"/>
<g id="clust2" class="cluster">
<title>cluster_0</title>
<path fill="#e5e5e5" stroke="#7f7f7f" d="M173.536,-8C173.536,-8 630.536,-8 630.536,-8 636.536,-8 642.536,-14 642.536,-20 642.536,-20 642.536,-562.3283 642.536,-562.3283 642.536,-568.3283 636.536,-574.3283 630.536,-574.3283 630.536,-574.3283 173.536,-574.3283 173.536,-574.3283 167.536,-574.3283 161.536,-568.3283 161.536,-562.3283 161.536,-562.3283 161.536,-20 161.536,-20 161.536,-14 167.536,-8 173.536,-8"/>
</g>
<g id="clust3" class="cluster">
<title>cluster_1</title>
<polygon fill="#bababa" stroke="#bababa" points="201.536,-376.9283 201.536,-534.3283 391.536,-534.3283 391.536,-376.9283 201.536,-376.9283"/>
</g>
<!-- o1 -->
<g id="node1" class="node">
<title>o1</title>
<path fill="#ffffff" stroke="#cd0000" d="M109.108,-524.3299C109.108,-524.3299 11.964,-524.3299 11.964,-524.3299 5.964,-524.3299 -.036,-518.3299 -.036,-512.3299 -.036,-512.3299 -.036,-483.5268 -.036,-483.5268 -.036,-477.5268 5.964,-471.5268 11.964,-471.5268 11.964,-471.5268 109.108,-471.5268 109.108,-471.5268 115.108,-471.5268 121.108,-477.5268 121.108,-483.5268 121.108,-483.5268 121.108,-512.3299 121.108,-512.3299 121.108,-518.3299 115.108,-524.3299 109.108,-524.3299"/>
<text text-anchor="middle" x="60.536" y="-502.7283" font-family="Times,serif" font-size="16.00" fill="#000000">Objection contre</text>
<text text-anchor="middle" x="60.536" y="-483.5283" font-family="Times,serif" font-size="16.00" fill="#000000">cette prémisse</text>
</g>
<!-- p1 -->
<g id="node2" class="node">
<title>p1</title>
<path fill="#ffffff" stroke="#000000" d="M364.1397,-519.2288C364.1397,-519.2288 228.9323,-519.2288 228.9323,-519.2288 222.9323,-519.2288 216.9323,-513.2288 216.9323,-507.2288 216.9323,-507.2288 216.9323,-488.6279 216.9323,-488.6279 216.9323,-482.6279 222.9323,-476.6279 228.9323,-476.6279 228.9323,-476.6279 364.1397,-476.6279 364.1397,-476.6279 370.1397,-476.6279 376.1397,-482.6279 376.1397,-488.6279 376.1397,-488.6279 376.1397,-507.2288 376.1397,-507.2288 376.1397,-513.2288 370.1397,-519.2288 364.1397,-519.2288"/>
<text text-anchor="middle" x="296.536" y="-490.7283" font-family="Times,serif" font-size="24.00" fill="#000000">(1) Prémisse A</text>
</g>
<!-- o1&#45;&gt;p1 -->
<g id="edge1" class="edge">
<title>o1&#45;&gt;p1</title>
<path fill="none" stroke="#cd0000" stroke-width=".8" d="M129.6465,-497.9283C156.9689,-497.9283 188.5394,-497.9283 216.8197,-497.9283"/>
<polygon fill="#cd0000" stroke="#cd0000" stroke-width=".8" points="129.3119,-495.1284 121.3119,-497.9283 129.3118,-500.7284 129.3119,-495.1284"/>
<text text-anchor="middle" x="168.9032" y="-504.5283" font-family="Times,serif" font-size="12.00" fill="#8b0000"> Mais …</text>
</g>
<!-- p2 -->
<g id="node3" class="node">
<title>p2</title>
<path fill="#ffffff" stroke="#000000" d="M362.8195,-434.6288C362.8195,-434.6288 228.2525,-434.6288 228.2525,-434.6288 222.2525,-434.6288 216.2525,-428.6288 216.2525,-422.6288 216.2525,-422.6288 216.2525,-404.0279 216.2525,-404.0279 216.2525,-398.0279 222.2525,-392.0279 228.2525,-392.0279 228.2525,-392.0279 362.8195,-392.0279 362.8195,-392.0279 368.8195,-392.0279 374.8195,-398.0279 374.8195,-404.0279 374.8195,-404.0279 374.8195,-422.6288 374.8195,-422.6288 374.8195,-428.6288 368.8195,-434.6288 362.8195,-434.6288"/>
<text text-anchor="middle" x="295.536" y="-406.1283" font-family="Times,serif" font-size="24.00" fill="#000000">(2) Prémisse B</text>
</g>
<!-- p1&#45;&gt;p2 -->
<!-- p3 -->
<g id="node4" class="node">
<title>p3</title>
<path fill="#ffffff" stroke="#000000" d="M329.3235,-269.0288C329.3235,-269.0288 213.7485,-269.0288 213.7485,-269.0288 207.7485,-269.0288 201.7485,-263.0288 201.7485,-257.0288 201.7485,-257.0288 201.7485,-238.4279 201.7485,-238.4279 201.7485,-232.4279 207.7485,-226.4279 213.7485,-226.4279 213.7485,-226.4279 329.3235,-226.4279 329.3235,-226.4279 335.3235,-226.4279 341.3235,-232.4279 341.3235,-238.4279 341.3235,-238.4279 341.3235,-257.0288 341.3235,-257.0288 341.3235,-263.0288 335.3235,-269.0288 329.3235,-269.0288"/>
<text text-anchor="middle" x="271.536" y="-240.5283" font-family="Times,serif" font-size="24.00" fill="#000000">(3) Lemme 1</text>
</g>
<!-- p2&#45;&gt;p3 -->
<g id="edge3" class="edge">
<title>p2:s&#45;&gt;p3:n</title>
<path fill="none" stroke="#000000" d="M294.8775,-376.9307C291.297,-336.7214 274.2436,-321.3683 271.8223,-279.0205"/>
<polygon fill="#000000" stroke="#000000" points="275.3128,-278.6271 271.536,-268.7283 268.3155,-278.8218 275.3128,-278.6271"/>
<text text-anchor="middle" x="237.5337" y="-346.2787" font-family="Times,serif" font-size="15.00" fill="#666666">Par</text>
<text text-anchor="middle" x="237.5337" y="-328.2787" font-family="Times,serif" font-size="15.00" fill="#666666">conséquent …</text>
</g>
<!-- p4 -->
<g id="node5" class="node">
<title>p4</title>
<path fill="#ffffff" stroke="#000000" d="M590.8139,-269.0288C590.8139,-269.0288 460.2581,-269.0288 460.2581,-269.0288 454.2581,-269.0288 448.2581,-263.0288 448.2581,-257.0288 448.2581,-257.0288 448.2581,-238.4279 448.2581,-238.4279 448.2581,-232.4279 454.2581,-226.4279 460.2581,-226.4279 460.2581,-226.4279 590.8139,-226.4279 590.8139,-226.4279 596.8139,-226.4279 602.8139,-232.4279 602.8139,-238.4279 602.8139,-238.4279 602.8139,-257.0288 602.8139,-257.0288 602.8139,-263.0288 596.8139,-269.0288 590.8139,-269.0288"/>
<text text-anchor="middle" x="525.536" y="-240.5283" font-family="Times,serif" font-size="24.00" fill="#000000">(4) Prémisse 3</text>
</g>
<!-- p3&#45;&gt;p4 -->
<!-- C -->
<g id="node6" class="node">
<title>C</title>
<ellipse fill="#000000" stroke="#000000" cx="407.536" cy="-78.2642" rx="87.4183" ry="30.0302"/>
<text text-anchor="middle" x="407.536" y="-71.0642" font-family="Times,serif" font-size="24.00" fill="#ffffff">Conclusion</text>
</g>
<!-- p3&#45;&gt;C -->
<g id="edge5" class="edge">
<title>p3&#45;&gt;C</title>
<path fill="none" stroke="#000000" d="M288.7605,-226.2656C311.1263,-198.3964 350.5186,-149.3113 377.7715,-115.3525"/>
<polygon fill="#000000" stroke="#000000" points="380.5476,-117.4853 384.0769,-107.4956 375.0883,-113.104 380.5476,-117.4853"/>
<text text-anchor="middle" x="292.7083" y="-189.4802" font-family="Times,serif" font-size="15.00" fill="#666666">Par</text>
<text text-anchor="middle" x="292.7083" y="-171.4802" font-family="Times,serif" font-size="15.00" fill="#666666">conséquent …</text>
</g>
<!-- p4&#45;&gt;C -->
<g id="edge6" class="edge">
<title>p4&#45;&gt;C</title>
<path fill="none" stroke="#000000" d="M510.5912,-226.2656C491.3246,-198.5961 457.496,-150.0136 433.871,-116.0848"/>
<polygon fill="#000000" stroke="#000000" points="436.6861,-114.0027 428.0995,-107.7962 430.9416,-118.0027 436.6861,-114.0027"/>
<text text-anchor="middle" x="425.6853" y="-189.4884" font-family="Times,serif" font-size="15.00" fill="#666666">Par</text>
<text text-anchor="middle" x="425.6853" y="-171.4884" font-family="Times,serif" font-size="15.00" fill="#666666">conséquent …</text>
</g>
<!-- o2 -->
<g id="node7" class="node">
<title>o2</title>
<path fill="#ffffff" stroke="#cd0000" d="M792.108,-274.1299C792.108,-274.1299 694.964,-274.1299 694.964,-274.1299 688.964,-274.1299 682.964,-268.1299 682.964,-262.1299 682.964,-262.1299 682.964,-233.3268 682.964,-233.3268 682.964,-227.3268 688.964,-221.3268 694.964,-221.3268 694.964,-221.3268 792.108,-221.3268 792.108,-221.3268 798.108,-221.3268 804.108,-227.3268 804.108,-233.3268 804.108,-233.3268 804.108,-262.1299 804.108,-262.1299 804.108,-268.1299 798.108,-274.1299 792.108,-274.1299"/>
<text text-anchor="middle" x="743.536" y="-252.5283" font-family="Times,serif" font-size="16.00" fill="#000000">Objection contre</text>
<text text-anchor="middle" x="743.536" y="-233.3283" font-family="Times,serif" font-size="16.00" fill="#000000">cette prémisse</text>
</g>
<!-- p4&#45;&gt;o2 -->
<g id="edge7" class="edge">
<title>p4&#45;&gt;o2</title>
<path fill="none" stroke="#cd0000" stroke-width=".8" d="M602.7014,-247.7283C626.1552,-247.7283 651.7645,-247.7283 674.6366,-247.7283"/>
<polygon fill="#cd0000" stroke="#cd0000" stroke-width=".8" points="674.9302,-250.5284 682.9302,-247.7283 674.9302,-244.9284 674.9302,-250.5284"/>
<text text-anchor="middle" x="642.8374" y="-254.3283" font-family="Times,serif" font-size="12.00" fill="#8b0000"> Mais …</text>
</g>
</g>
</svg>
