<?xml version="1.0" encoding="UTF-8" standalone="no"?>
<!DOCTYPE svg PUBLIC "-//W3C//DTD SVG 1.1//EN"
 "http://www.w3.org/Graphics/SVG/1.1/DTD/svg11.dtd">
<!-- Generated by graphviz version 2.40.1 (20161225.0304)
 -->
<!-- Title: G Pages: 1 -->
<svg width="641pt" height="576pt"
 viewBox="0.00 0.00 641.00 575.93" xmlns="http://www.w3.org/2000/svg" xmlns:xlink="http://www.w3.org/1999/xlink">
<g id="graph0" class="graph" transform="scale(1 1) rotate(0) translate(4 571.9283)">
<title>G</title>
<polygon fill="#ffffff" stroke="transparent" points="-4,4 -4,-571.9283 637,-571.9283 637,4 -4,4"/>
<g id="clust2" class="cluster">
<title>cluster_0</title>
<path fill="#e5e5e5" stroke="#7f7f7f" d="M88,-8C88,-8 545,-8 545,-8 551,-8 557,-14 557,-20 557,-20 557,-547.9283 557,-547.9283 557,-553.9283 551,-559.9283 545,-559.9283 545,-559.9283 88,-559.9283 88,-559.9283 82,-559.9283 76,-553.9283 76,-547.9283 76,-547.9283 76,-20 76,-20 76,-14 82,-8 88,-8"/>
</g>
<g id="clust3" class="cluster">
<title>cluster_1</title>
<polygon fill="#bababa" stroke="#bababa" points="116,-367.3283 116,-519.9283 306,-519.9283 306,-367.3283 116,-367.3283"/>
</g>
<!-- o1 -->
<g id="node1" class="node">
<title>o1</title>
<ellipse fill="#cd0000" stroke="#cd0000" stroke-width=".5" cx="18" cy="-483.5283" rx="18" ry="18"/>
<text text-anchor="middle" x="18" y="-479.3283" font-family="Times,serif" font-size="14.00" fill="#ffffff">o1</text>
</g>
<!-- p1 -->
<g id="node2" class="node">
<title>p1</title>
<path fill="#ffffff" stroke="#000000" d="M278.6037,-504.8288C278.6037,-504.8288 143.3963,-504.8288 143.3963,-504.8288 137.3963,-504.8288 131.3963,-498.8288 131.3963,-492.8288 131.3963,-492.8288 131.3963,-474.2279 131.3963,-474.2279 131.3963,-468.2279 137.3963,-462.2279 143.3963,-462.2279 143.3963,-462.2279 278.6037,-462.2279 278.6037,-462.2279 284.6037,-462.2279 290.6037,-468.2279 290.6037,-474.2279 290.6037,-474.2279 290.6037,-492.8288 290.6037,-492.8288 290.6037,-498.8288 284.6037,-504.8288 278.6037,-504.8288"/>
<text text-anchor="middle" x="211" y="-476.3283" font-family="Times,serif" font-size="24.00" fill="#000000">(1) Prémisse A</text>
</g>
<!-- o1&#45;&gt;p1 -->
<g id="edge1" class="edge">
<title>o1&#45;&gt;p1</title>
<path fill="none" stroke="#cd0000" stroke-width=".8" d="M44.1871,-483.5283C66.6305,-483.5283 100.1721,-483.5283 131.3057,-483.5283"/>
<polygon fill="#cd0000" stroke="#cd0000" stroke-width=".8" points="44.1569,-480.7282 36.157,-483.5283 44.157,-486.3282 44.1569,-480.7282"/>
<text text-anchor="middle" x="83.5992" y="-489.5283" font-family="Times,serif" font-size="10.00" fill="#8b0000">Objection !</text>
</g>
<!-- p2 -->
<g id="node3" class="node">
<title>p2</title>
<path fill="#ffffff" stroke="#000000" d="M277.2835,-425.0288C277.2835,-425.0288 142.7165,-425.0288 142.7165,-425.0288 136.7165,-425.0288 130.7165,-419.0288 130.7165,-413.0288 130.7165,-413.0288 130.7165,-394.4279 130.7165,-394.4279 130.7165,-388.4279 136.7165,-382.4279 142.7165,-382.4279 142.7165,-382.4279 277.2835,-382.4279 277.2835,-382.4279 283.2835,-382.4279 289.2835,-388.4279 289.2835,-394.4279 289.2835,-394.4279 289.2835,-413.0288 289.2835,-413.0288 289.2835,-419.0288 283.2835,-425.0288 277.2835,-425.0288"/>
<text text-anchor="middle" x="210" y="-396.5283" font-family="Times,serif" font-size="24.00" fill="#000000">(2) Prémisse B</text>
</g>
<!-- p1&#45;&gt;p2 -->
<!-- p3 -->
<g id="node4" class="node">
<title>p3</title>
<path fill="#ffffff" stroke="#000000" d="M243.7875,-264.2288C243.7875,-264.2288 128.2125,-264.2288 128.2125,-264.2288 122.2125,-264.2288 116.2125,-258.2288 116.2125,-252.2288 116.2125,-252.2288 116.2125,-233.6279 116.2125,-233.6279 116.2125,-227.6279 122.2125,-221.6279 128.2125,-221.6279 128.2125,-221.6279 243.7875,-221.6279 243.7875,-221.6279 249.7875,-221.6279 255.7875,-227.6279 255.7875,-233.6279 255.7875,-233.6279 255.7875,-252.2288 255.7875,-252.2288 255.7875,-258.2288 249.7875,-264.2288 243.7875,-264.2288"/>
<text text-anchor="middle" x="186" y="-235.7283" font-family="Times,serif" font-size="24.00" fill="#000000">(3) Lemme 1</text>
</g>
<!-- p2&#45;&gt;p3 -->
<g id="edge3" class="edge">
<title>p2:s&#45;&gt;p3:n</title>
<path fill="none" stroke="#000000" d="M209.2868,-367.3332C205.5995,-329.1749 188.7747,-314.4452 186.3034,-274.1184"/>
<polygon fill="#000000" stroke="#000000" points="189.7962,-273.8197 186,-263.9283 182.7993,-274.0281 189.7962,-273.8197"/>
<text text-anchor="middle" x="151.8565" y="-338.9544" font-family="Times,serif" font-size="15.00" fill="#666666">Par</text>
<text text-anchor="middle" x="151.8565" y="-320.9544" font-family="Times,serif" font-size="15.00" fill="#666666">conséquent …</text>
</g>
<!-- p4 -->
<g id="node5" class="node">
<title>p4</title>
<path fill="#ffffff" stroke="#000000" d="M505.2779,-264.2288C505.2779,-264.2288 374.7221,-264.2288 374.7221,-264.2288 368.7221,-264.2288 362.7221,-258.2288 362.7221,-252.2288 362.7221,-252.2288 362.7221,-233.6279 362.7221,-233.6279 362.7221,-227.6279 368.7221,-221.6279 374.7221,-221.6279 374.7221,-221.6279 505.2779,-221.6279 505.2779,-221.6279 511.2779,-221.6279 517.2779,-227.6279 517.2779,-233.6279 517.2779,-233.6279 517.2779,-252.2288 517.2779,-252.2288 517.2779,-258.2288 511.2779,-264.2288 505.2779,-264.2288"/>
<text text-anchor="middle" x="440" y="-235.7283" font-family="Times,serif" font-size="24.00" fill="#000000">(4) Prémisse 3</text>
</g>
<!-- p3&#45;&gt;p4 -->
<!-- C -->
<g id="node6" class="node">
<title>C</title>
<ellipse fill="#000000" stroke="#000000" cx="322" cy="-78.2642" rx="87.4183" ry="30.0302"/>
<text text-anchor="middle" x="322" y="-71.0642" font-family="Times,serif" font-size="24.00" fill="#ffffff">Conclusion</text>
</g>
<!-- p3&#45;&gt;C -->
<g id="edge5" class="edge">
<title>p3&#45;&gt;C</title>
<path fill="none" stroke="#000000" d="M203.7796,-221.4014C225.9491,-194.5593 264.2093,-148.2352 291.1892,-115.5688"/>
<polygon fill="#000000" stroke="#000000" points="294.1193,-117.5174 297.7888,-107.5783 288.7221,-113.0597 294.1193,-117.5174"/>
<text text-anchor="middle" x="207.2215" y="-186.9077" font-family="Times,serif" font-size="15.00" fill="#666666">Par</text>
<text text-anchor="middle" x="207.2215" y="-168.9077" font-family="Times,serif" font-size="15.00" fill="#666666">conséquent …</text>
</g>
<!-- p4&#45;&gt;C -->
<g id="edge6" class="edge">
<title>p4&#45;&gt;C</title>
<path fill="none" stroke="#000000" d="M424.5736,-221.4014C405.4771,-194.7531 372.6205,-148.9029 349.2414,-116.2784"/>
<polygon fill="#000000" stroke="#000000" points="351.8873,-113.9619 343.2174,-107.8722 346.1974,-118.0393 351.8873,-113.9619"/>
<text text-anchor="middle" x="340.1112" y="-186.9222" font-family="Times,serif" font-size="15.00" fill="#666666">Par</text>
<text text-anchor="middle" x="340.1112" y="-168.9222" font-family="Times,serif" font-size="15.00" fill="#666666">conséquent …</text>
</g>
<!-- o2 -->
<g id="node7" class="node">
<title>o2</title>
<ellipse fill="#cd0000" stroke="#cd0000" stroke-width=".5" cx="615" cy="-242.9283" rx="18" ry="18"/>
<text text-anchor="middle" x="615" y="-238.7283" font-family="Times,serif" font-size="14.00" fill="#ffffff">o2</text>
</g>
<!-- p4&#45;&gt;o2 -->
<g id="edge7" class="edge">
<title>p4&#45;&gt;o2</title>
<path fill="none" stroke="#cd0000" stroke-width=".8" d="M517.267,-242.9283C542.8344,-242.9283 569.5835,-242.9283 588.6207,-242.9283"/>
<polygon fill="#cd0000" stroke="#cd0000" stroke-width=".8" points="588.7929,-245.7284 596.7928,-242.9283 588.7928,-240.1284 588.7929,-245.7284"/>
<text text-anchor="middle" x="557.0694" y="-248.9283" font-family="Times,serif" font-size="10.00" fill="#8b0000">Objection !</text>
</g>
</g>
</svg>