<?xml version="1.0" encoding="UTF-8" standalone="no"?>
<!DOCTYPE svg PUBLIC "-//W3C//DTD SVG 1.1//EN"
 "http://www.w3.org/Graphics/SVG/1.1/DTD/svg11.dtd">
<!-- Generated by graphviz version 2.40.1 (20161225.0304)
 -->
<!-- Title: G Pages: 1 -->
<svg width="681pt" height="576pt"
 viewBox="0.00 0.00 681.00 575.93" xmlns="http://www.w3.org/2000/svg" xmlns:xlink="http://www.w3.org/1999/xlink">
<g id="graph0" class="graph" transform="scale(1 1) rotate(0) translate(4 571.9283)">
<title>G</title>
<polygon fill="#ffffff" stroke="transparent" points="-4,4 -4,-571.9283 677,-571.9283 677,4 -4,4"/>
<g id="clust2" class="cluster">
<title>cluster_0</title>
<path fill="#e5e5e5" stroke="#7f7f7f" d="M100,-8C100,-8 557,-8 557,-8 563,-8 569,-14 569,-20 569,-20 569,-547.9283 569,-547.9283 569,-553.9283 563,-559.9283 557,-559.9283 557,-559.9283 100,-559.9283 100,-559.9283 94,-559.9283 88,-553.9283 88,-547.9283 88,-547.9283 88,-20 88,-20 88,-14 94,-8 100,-8"/>
</g>
<g id="clust3" class="cluster">
<title>cluster_1</title>
<polygon fill="#bababa" stroke="#bababa" points="128,-367.3283 128,-519.9283 318,-519.9283 318,-367.3283 128,-367.3283"/>
</g>
<!-- o1 -->
<g id="node1" class="node">
<title>o1</title>
<ellipse fill="#cd0000" stroke="#cd0000" stroke-width=".5" cx="18" cy="-483.5283" rx="18" ry="18"/>
<text text-anchor="middle" x="18" y="-479.3283" font-family="Times,serif" font-size="14.00" fill="#ffffff">o1</text>
</g>
<!-- p1 -->
<g id="node2" class="node">
<title>p1</title>
<path fill="#ffffff" stroke="#000000" d="M290.6037,-504.8288C290.6037,-504.8288 155.3963,-504.8288 155.3963,-504.8288 149.3963,-504.8288 143.3963,-498.8288 143.3963,-492.8288 143.3963,-492.8288 143.3963,-474.2279 143.3963,-474.2279 143.3963,-468.2279 149.3963,-462.2279 155.3963,-462.2279 155.3963,-462.2279 290.6037,-462.2279 290.6037,-462.2279 296.6037,-462.2279 302.6037,-468.2279 302.6037,-474.2279 302.6037,-474.2279 302.6037,-492.8288 302.6037,-492.8288 302.6037,-498.8288 296.6037,-504.8288 290.6037,-504.8288"/>
<text text-anchor="middle" x="223" y="-476.3283" font-family="Times,serif" font-size="24.00" fill="#000000">(1) Prémisse A</text>
</g>
<!-- o1&#45;&gt;p1 -->
<g id="edge1" class="edge">
<title>o1&#45;&gt;p1</title>
<path fill="none" stroke="#cd0000" stroke-width=".8" d="M44.4206,-483.5283C69.3888,-483.5283 108.1365,-483.5283 143.1661,-483.5283"/>
<polygon fill="#cd0000" stroke="#cd0000" stroke-width=".8" points="44.1924,-480.7284 36.1924,-483.5283 44.1923,-486.3284 44.1924,-480.7284"/>
<text text-anchor="middle" x="89.5992" y="-489.5283" font-family="Times,serif" font-size="10.00" fill="#8b0000">Objection !</text>
</g>
<!-- p2 -->
<g id="node3" class="node">
<title>p2</title>
<path fill="#ffffff" stroke="#000000" d="M289.2835,-425.0288C289.2835,-425.0288 154.7165,-425.0288 154.7165,-425.0288 148.7165,-425.0288 142.7165,-419.0288 142.7165,-413.0288 142.7165,-413.0288 142.7165,-394.4279 142.7165,-394.4279 142.7165,-388.4279 148.7165,-382.4279 154.7165,-382.4279 154.7165,-382.4279 289.2835,-382.4279 289.2835,-382.4279 295.2835,-382.4279 301.2835,-388.4279 301.2835,-394.4279 301.2835,-394.4279 301.2835,-413.0288 301.2835,-413.0288 301.2835,-419.0288 295.2835,-425.0288 289.2835,-425.0288"/>
<text text-anchor="middle" x="222" y="-396.5283" font-family="Times,serif" font-size="24.00" fill="#000000">(2) Prémisse B</text>
</g>
<!-- p1&#45;&gt;p2 -->
<!-- p3 -->
<g id="node4" class="node">
<title>p3</title>
<path fill="#ffffff" stroke="#000000" d="M255.7875,-264.2288C255.7875,-264.2288 140.2125,-264.2288 140.2125,-264.2288 134.2125,-264.2288 128.2125,-258.2288 128.2125,-252.2288 128.2125,-252.2288 128.2125,-233.6279 128.2125,-233.6279 128.2125,-227.6279 134.2125,-221.6279 140.2125,-221.6279 140.2125,-221.6279 255.7875,-221.6279 255.7875,-221.6279 261.7875,-221.6279 267.7875,-227.6279 267.7875,-233.6279 267.7875,-233.6279 267.7875,-252.2288 267.7875,-252.2288 267.7875,-258.2288 261.7875,-264.2288 255.7875,-264.2288"/>
<text text-anchor="middle" x="198" y="-235.7283" font-family="Times,serif" font-size="24.00" fill="#000000">(3) Lemme 1</text>
</g>
<!-- p2&#45;&gt;p3 -->
<g id="edge3" class="edge">
<title>p2:s&#45;&gt;p3:n</title>
<path fill="none" stroke="#000000" d="M221.2868,-367.3332C217.5995,-329.1749 200.7747,-314.4452 198.3034,-274.1184"/>
<polygon fill="#000000" stroke="#000000" points="201.7962,-273.8197 198,-263.9283 194.7993,-274.0281 201.7962,-273.8197"/>
<text text-anchor="middle" x="163.8565" y="-338.9544" font-family="Times,serif" font-size="15.00" fill="#666666">Par</text>
<text text-anchor="middle" x="163.8565" y="-320.9544" font-family="Times,serif" font-size="15.00" fill="#666666">conséquent …</text>
</g>
<!-- p4 -->
<g id="node5" class="node">
<title>p4</title>
<path fill="#ffffff" stroke="#000000" d="M517.2779,-264.2288C517.2779,-264.2288 386.7221,-264.2288 386.7221,-264.2288 380.7221,-264.2288 374.7221,-258.2288 374.7221,-252.2288 374.7221,-252.2288 374.7221,-233.6279 374.7221,-233.6279 374.7221,-227.6279 380.7221,-221.6279 386.7221,-221.6279 386.7221,-221.6279 517.2779,-221.6279 517.2779,-221.6279 523.2779,-221.6279 529.2779,-227.6279 529.2779,-233.6279 529.2779,-233.6279 529.2779,-252.2288 529.2779,-252.2288 529.2779,-258.2288 523.2779,-264.2288 517.2779,-264.2288"/>
<text text-anchor="middle" x="452" y="-235.7283" font-family="Times,serif" font-size="24.00" fill="#000000">(4) Prémisse 3</text>
</g>
<!-- p3&#45;&gt;p4 -->
<!-- C -->
<g id="node6" class="node">
<title>C</title>
<ellipse fill="#000000" stroke="#000000" cx="334" cy="-78.2642" rx="87.4183" ry="30.0302"/>
<text text-anchor="middle" x="334" y="-71.0642" font-family="Times,serif" font-size="24.00" fill="#ffffff">Conclusion</text>
</g>
<!-- p3&#45;&gt;C -->
<g id="edge5" class="edge">
<title>p3&#45;&gt;C</title>
<path fill="none" stroke="#000000" d="M215.7796,-221.4014C237.9491,-194.5593 276.2093,-148.2352 303.1892,-115.5688"/>
<polygon fill="#000000" stroke="#000000" points="306.1193,-117.5174 309.7888,-107.5783 300.7221,-113.0597 306.1193,-117.5174"/>
<text text-anchor="middle" x="219.2215" y="-186.9077" font-family="Times,serif" font-size="15.00" fill="#666666">Par</text>
<text text-anchor="middle" x="219.2215" y="-168.9077" font-family="Times,serif" font-size="15.00" fill="#666666">conséquent …</text>
</g>
<!-- p4&#45;&gt;C -->
<g id="edge6" class="edge">
<title>p4&#45;&gt;C</title>
<path fill="none" stroke="#000000" d="M436.5736,-221.4014C417.4771,-194.7531 384.6205,-148.9029 361.2414,-116.2784"/>
<polygon fill="#000000" stroke="#000000" points="363.8873,-113.9619 355.2174,-107.8722 358.1974,-118.0393 363.8873,-113.9619"/>
<text text-anchor="middle" x="352.1112" y="-186.9222" font-family="Times,serif" font-size="15.00" fill="#666666">Par</text>
<text text-anchor="middle" x="352.1112" y="-168.9222" font-family="Times,serif" font-size="15.00" fill="#666666">conséquent …</text>
</g>
<!-- o2 -->
<g id="node7" class="node">
<title>o2</title>
<ellipse fill="#cd0000" stroke="#cd0000" stroke-width=".5" cx="655" cy="-242.9283" rx="18" ry="18"/>
<text text-anchor="middle" x="655" y="-238.7283" font-family="Times,serif" font-size="14.00" fill="#ffffff">o2</text>
</g>
<!-- p4&#45;&gt;o2 -->
<g id="edge7" class="edge">
<title>p4&#45;&gt;o2</title>
<path fill="none" stroke="#cd0000" stroke-width=".8" d="M529.3247,-242.9283C564.4048,-242.9283 603.5757,-242.9283 628.7169,-242.9283"/>
<polygon fill="#cd0000" stroke="#cd0000" stroke-width=".8" points="628.9949,-245.7284 636.9949,-242.9283 628.9948,-240.1284 628.9949,-245.7284"/>
<text text-anchor="middle" x="583.0694" y="-248.9283" font-family="Times,serif" font-size="10.00" fill="#8b0000">Objection !</text>
</g>
</g>
</svg>
