<?xml version="1.0" encoding="UTF-8" standalone="no"?><!DOCTYPE svg PUBLIC "-//W3C//DTD SVG 1.1//EN" "http://www.w3.org/Graphics/SVG/1.1/DTD/svg11.dtd"><!-- Generated by graphviz version 2.40.1 (20161225.0304)
 --><!-- Title: G Pages: 1 --><svg xmlns="http://www.w3.org/2000/svg" xmlns:xlink="http://www.w3.org/1999/xlink" width="578pt" height="403pt" viewBox="0.00 0.00 577.86 403.06">
<g id="remarques+objections_graph0" class="graph" transform="scale(1 1) rotate(0) translate(21.6 381.4597)">
<title>G</title>
<polygon fill="#ffffff" stroke="transparent" points="-21.6,21.6 -21.6,-381.4597 556.2604,-381.4597 556.2604,21.6 -21.6,21.6"/>
<g id="remarques+objections_clust2" class="cluster">
<title>cluster_0</title>
<path fill="#e5e5e5" stroke="#7f7f7f" d="M204,-8C204,-8 410,-8 410,-8 416,-8 422,-14 422,-20 422,-20 422,-339.8597 422,-339.8597 422,-345.8597 416,-351.8597 410,-351.8597 410,-351.8597 204,-351.8597 204,-351.8597 198,-351.8597 192,-345.8597 192,-339.8597 192,-339.8597 192,-20 192,-20 192,-14 198,-8 204,-8"/>
</g>
<!-- 0 -->
<!-- o1 -->
<g id="remarques+objections_node2_remarques+objections" class="node">
<title>o1</title>
<path fill="#ffffff" stroke="#ee0000" d="M129.8215,-340.16C129.8215,-340.16 84.1785,-340.16 84.1785,-340.16 78.1785,-340.16 72.1785,-334.16 72.1785,-328.16 72.1785,-328.16 72.1785,-286.7594 72.1785,-286.7594 72.1785,-280.7594 78.1785,-274.7594 84.1785,-274.7594 84.1785,-274.7594 129.8215,-274.7594 129.8215,-274.7594 135.8215,-274.7594 141.8215,-280.7594 141.8215,-286.7594 141.8215,-286.7594 141.8215,-328.16 141.8215,-328.16 141.8215,-334.16 135.8215,-340.16 129.8215,-340.16"/>
<text text-anchor="middle" x="107" y="-318.2597" font-family="Times,serif" font-size="12.00" fill="#000000">Objection</text>
<text text-anchor="middle" x="107" y="-303.8597" font-family="Times,serif" font-size="12.00" fill="#000000">contre</text>
<text text-anchor="middle" x="107" y="-289.4597" font-family="Times,serif" font-size="12.00" fill="#000000">l'idée 1</text>
</g>
<!-- p1 -->
<g id="remarques+objections_node4_remarques+objections" class="node">
<title>p1</title>
<path fill="#ffffff" stroke="#000000" d="M294.5561,-326.7602C294.5561,-326.7602 261.4439,-326.7602 261.4439,-326.7602 255.4439,-326.7602 249.4439,-320.7602 249.4439,-314.7602 249.4439,-314.7602 249.4439,-300.1592 249.4439,-300.1592 249.4439,-294.1592 255.4439,-288.1592 261.4439,-288.1592 261.4439,-288.1592 294.5561,-288.1592 294.5561,-288.1592 300.5561,-288.1592 306.5561,-294.1592 306.5561,-300.1592 306.5561,-300.1592 306.5561,-314.7602 306.5561,-314.7602 306.5561,-320.7602 300.5561,-326.7602 294.5561,-326.7602"/>
<text text-anchor="middle" x="278" y="-303.2597" font-family="Times,serif" font-size="14.00" fill="#000000">Idée 1</text>
</g>
<!-- o1&#45;&gt;p1 -->
<g id="remarques+objections_edge1" class="edge">
<title>o1-&gt;p1</title>
<path fill="none" stroke="#cd0000" stroke-width=".8" d="M151.3761,-325.1125C178.4447,-333.3428 197.3739,-330.2077 249.0618,-315.7073"/>
<polygon fill="#cd0000" stroke="#cd0000" stroke-width=".8" points="152.4193,-321.7707 141.8251,-321.8856 150.1787,-328.4024 152.4193,-321.7707"/>
<text text-anchor="middle" x="169.422" y="-331.9385" font-family="Times,serif" font-size="10.00" fill="#666666">objection !</text>
</g>
<!-- o3 -->
<g id="remarques+objections_node3_remarques+objections" class="node">
<title>o3</title>
<path fill="#ffffff" stroke="#ee0000" d="M522.8215,-221.96C522.8215,-221.96 477.1785,-221.96 477.1785,-221.96 471.1785,-221.96 465.1785,-215.96 465.1785,-209.96 465.1785,-209.96 465.1785,-168.5594 465.1785,-168.5594 465.1785,-162.5594 471.1785,-156.5594 477.1785,-156.5594 477.1785,-156.5594 522.8215,-156.5594 522.8215,-156.5594 528.8215,-156.5594 534.8215,-162.5594 534.8215,-168.5594 534.8215,-168.5594 534.8215,-209.96 534.8215,-209.96 534.8215,-215.96 528.8215,-221.96 522.8215,-221.96"/>
<text text-anchor="middle" x="500" y="-200.0597" font-family="Times,serif" font-size="12.00" fill="#000000">Objection</text>
<text text-anchor="middle" x="500" y="-185.6597" font-family="Times,serif" font-size="12.00" fill="#000000">contre</text>
<text text-anchor="middle" x="500" y="-171.2597" font-family="Times,serif" font-size="12.00" fill="#000000">l'idée 3</text>
</g>
<!-- p1&#45;&gt;o3 -->
<!-- p2 -->
<g id="remarques+objections_node7_remarques+objections" class="node">
<title>p2</title>
<path fill="#ffffff" stroke="#000000" d="M269.5561,-208.5602C269.5561,-208.5602 236.4439,-208.5602 236.4439,-208.5602 230.4439,-208.5602 224.4439,-202.5602 224.4439,-196.5602 224.4439,-196.5602 224.4439,-181.9592 224.4439,-181.9592 224.4439,-175.9592 230.4439,-169.9592 236.4439,-169.9592 236.4439,-169.9592 269.5561,-169.9592 269.5561,-169.9592 275.5561,-169.9592 281.5561,-175.9592 281.5561,-181.9592 281.5561,-181.9592 281.5561,-196.5602 281.5561,-196.5602 281.5561,-202.5602 275.5561,-208.5602 269.5561,-208.5602"/>
<text text-anchor="middle" x="253" y="-185.0597" font-family="Times,serif" font-size="14.00" fill="#000000">Idée 2</text>
</g>
<!-- p1&#45;&gt;p2 -->
<g id="remarques+objections_edge4" class="edge">
<title>p1-&gt;p2</title>
<path fill="none" stroke="#000000" d="M270.8981,-288.0097C265.4185,-271.7959 263.0658,-259.1413 257.2157,-218.7266"/>
<polygon fill="#000000" stroke="#000000" points="260.6706,-218.1617 255.7818,-208.7622 253.7419,-219.1588 260.6706,-218.1617"/>
<text text-anchor="middle" x="232.6894" y="-263.8228" font-family="Times,serif" font-size="10.00" fill="#666666">par</text>
<text text-anchor="middle" x="232.6894" y="-251.8228" font-family="Times,serif" font-size="10.00" fill="#666666">conséquent …</text>
</g>
<!-- p3 -->
<g id="remarques+objections_node5_remarques+objections" class="node">
<title>p3</title>
<path fill="#ffffff" stroke="#000000" d="M345.5561,-208.5602C345.5561,-208.5602 312.4439,-208.5602 312.4439,-208.5602 306.4439,-208.5602 300.4439,-202.5602 300.4439,-196.5602 300.4439,-196.5602 300.4439,-181.9592 300.4439,-181.9592 300.4439,-175.9592 306.4439,-169.9592 312.4439,-169.9592 312.4439,-169.9592 345.5561,-169.9592 345.5561,-169.9592 351.5561,-169.9592 357.5561,-175.9592 357.5561,-181.9592 357.5561,-181.9592 357.5561,-196.5602 357.5561,-196.5602 357.5561,-202.5602 351.5561,-208.5602 345.5561,-208.5602"/>
<text text-anchor="middle" x="329" y="-185.0597" font-family="Times,serif" font-size="14.00" fill="#000000">Idée 3</text>
</g>
<!-- p3&#45;&gt;o3 -->
<g id="remarques+objections_edge3" class="edge">
<title>p3-&gt;o3</title>
<path fill="none" stroke="#cd0000" stroke-width=".8" d="M357.5941,-189.7749C411.4232,-190.7359 434.9722,-191.0716 454.8105,-190.7819"/>
<polygon fill="#cd0000" stroke="#cd0000" stroke-width=".8" points="455.0609,-194.2776 464.9871,-190.5734 454.9174,-187.2791 455.0609,-194.2776"/>
<text text-anchor="middle" x="397.4489" y="-193.7476" font-family="Times,serif" font-size="10.00" fill="#666666">objection !</text>
</g>
<!-- PL1 -->
<g id="remarques+objections_node6_remarques+objections" class="node">
<title>PL1</title>
<polygon fill="#e0e0e0" stroke="transparent" points="397,-148.6597 217,-148.6597 217,-147.6597 397,-147.6597 397,-148.6597"/>
<polyline fill="none" stroke="#000000" points="217,-147.6597 397,-147.6597 "/>
</g>
<!-- p3&#45;&gt;PL1 -->
<!-- C -->
<g id="remarques+objections_node8_remarques+objections" class="node">
<title>C</title>
<ellipse fill="#000000" stroke="#000000" cx="307" cy="-63.8299" rx="73.5768" ry="30.6606"/>
<text text-anchor="middle" x="307" y="-58.4299" font-family="Times,serif" font-size="18.00" fill="#ffffff">Conclusion</text>
</g>
<!-- PL1&#45;&gt;C -->
<g id="remarques+objections_edge7" class="edge">
<title>PL1-&gt;C</title>
<path fill="none" stroke="#000000" d="M307.0931,-147.494C309.8945,-127.4593 311.6962,-114.5328 312.4981,-104.9711"/>
<polygon fill="#000000" stroke="#000000" points="316.0063,-104.8786 312.9805,-94.725 309.014,-104.5493 316.0063,-104.8786"/>
<text text-anchor="middle" x="281.6244" y="-112.0208" font-family="Times,serif" font-size="10.00" fill="#666666">par</text>
<text text-anchor="middle" x="281.6244" y="-100.0208" font-family="Times,serif" font-size="10.00" fill="#666666">conséquent …</text>
</g>
<!-- p2&#45;&gt;p3 -->
<!-- p2&#45;&gt;PL1 -->
</g>
</svg>