<?xml version="1.0" encoding="UTF-8" standalone="no"?><!DOCTYPE svg PUBLIC "-//W3C//DTD SVG 1.1//EN" "http://www.w3.org/Graphics/SVG/1.1/DTD/svg11.dtd"><!-- Generated by graphviz version 2.40.1 (20161225.0304)
 --><!-- Title: G Pages: 1 --><svg xmlns="http://www.w3.org/2000/svg" xmlns:xlink="http://www.w3.org/1999/xlink" width="174pt" height="682pt" viewBox="0.00 0.00 174.00 682.00">
<g id="graph0" class="graph" transform="scale(1 1) rotate(0) translate(4 678)">
<title>G</title>
<polygon fill="#ffffff" stroke="transparent" points="-4,4 -4,-678 170,-678 170,4 -4,4"/>
<g id="clust1" class="cluster">
<title>cluster_0</title>
<polygon fill="#f5f5f5" stroke="#666666" stroke-width=".5" points="8,-8 8,-666 158,-666 158,-8 8,-8"/>
</g>
<!-- a1 -->
<g id="node1" class="node">
<title>a1</title>
<path fill="#ffffff" stroke="#008b00" stroke-width="1.1" d="M94,-635.8016C94,-635.8016 54,-635.8016 54,-635.8016 48,-635.8016 42,-629.8016 42,-623.8016 42,-623.8016 42,-598.5984 42,-598.5984 42,-592.5984 48,-586.5984 54,-586.5984 54,-586.5984 94,-586.5984 94,-586.5984 100,-586.5984 106,-592.5984 106,-598.5984 106,-598.5984 106,-623.8016 106,-623.8016 106,-629.8016 100,-635.8016 94,-635.8016"/>
<text text-anchor="middle" x="74" y="-605.8" font-family="Times,serif" font-size="18.00" fill="#000000">……</text>
<text text-anchor="start" x="25.7565" y="-640.5" font-family="Times,serif" font-size="15.00" fill="#000000">💬</text>
</g>
<!-- o1 -->
<g id="node5" class="node">
<title>o1</title>
<path fill="#ffffff" stroke="#cd0000" stroke-width="1.1" d="M116,-550.4C116,-550.4 86,-550.4 86,-550.4 80,-550.4 74,-544.4 74,-538.4 74,-538.4 74,-526.4 74,-526.4 74,-520.4 80,-514.4 86,-514.4 86,-514.4 116,-514.4 116,-514.4 122,-514.4 128,-520.4 128,-526.4 128,-526.4 128,-538.4 128,-538.4 128,-544.4 122,-550.4 116,-550.4"/>
<text text-anchor="middle" x="66.5039" y="-519.8" font-family="Times,serif" font-size="18.00" fill="#000000">⚡</text>
</g>
<!-- a1&#45;&gt;o1 -->
<!-- a1&#45;&gt;o1 -->
<g id="edge7" class="edge">
<title>a1-&gt;o1:n</title>
<path fill="none" stroke="#cd0000" stroke-width=".8" d="M84.9819,-586.4703C89.8875,-575.4238 95.2529,-563.3416 98.362,-556.3405"/>
<polygon fill="#cd0000" stroke="#cd0000" stroke-width=".8" points="100.4841,-556.7359 101,-550.4 96.6455,-555.0313 100.4841,-556.7359"/>
<text text-anchor="start" x="48.6279" y="-574.4054" font-family="Times,serif" font-size="10.00" fill="#cd0000">objection !</text>
</g>
<!-- a2 -->
<g id="node2" class="node">
<title>a2</title>
<path fill="#ffffff" stroke="#008b00" stroke-width="1.1" d="M91,-478.2016C91,-478.2016 51,-478.2016 51,-478.2016 45,-478.2016 39,-472.2016 39,-466.2016 39,-466.2016 39,-440.9984 39,-440.9984 39,-434.9984 45,-428.9984 51,-428.9984 51,-428.9984 91,-428.9984 91,-428.9984 97,-428.9984 103,-434.9984 103,-440.9984 103,-440.9984 103,-466.2016 103,-466.2016 103,-472.2016 97,-478.2016 91,-478.2016"/>
<text text-anchor="middle" x="71" y="-448.2" font-family="Times,serif" font-size="18.00" fill="#000000">……</text>
<text text-anchor="start" x="22.7565" y="-482.9" font-family="Times,serif" font-size="15.00" fill="#000000">💬</text>
</g>
<!-- o2 -->
<g id="node6" class="node">
<title>o2</title>
<path fill="#ffffff" stroke="#cd0000" stroke-width="1.1" d="M115,-392.8C115,-392.8 85,-392.8 85,-392.8 79,-392.8 73,-386.8 73,-380.8 73,-380.8 73,-368.8 73,-368.8 73,-362.8 79,-356.8 85,-356.8 85,-356.8 115,-356.8 115,-356.8 121,-356.8 127,-362.8 127,-368.8 127,-368.8 127,-380.8 127,-380.8 127,-386.8 121,-392.8 115,-392.8"/>
<text text-anchor="middle" x="65.5039" y="-362.2" font-family="Times,serif" font-size="18.00" fill="#000000">⚡</text>
</g>
<!-- a2&#45;&gt;o2 -->
<!-- a2&#45;&gt;o2 -->
<g id="edge8" class="edge">
<title>a2-&gt;o2:n</title>
<path fill="none" stroke="#cd0000" stroke-width=".8" d="M82.7954,-428.8703C88.1898,-417.5608 94.1019,-405.1657 97.4009,-398.2491"/>
<polygon fill="#cd0000" stroke="#cd0000" stroke-width=".8" points="99.3123,-399.1196 100,-392.8 95.5215,-397.3114 99.3123,-399.1196"/>
<text text-anchor="start" x="47.0542" y="-416.5597" font-family="Times,serif" font-size="10.00" fill="#cd0000">objection !</text>
</g>
<!-- a3 -->
<g id="node3" class="node">
<title>a3</title>
<path fill="#ffffff" stroke="#008b00" stroke-width="1.1" d="M91,-320.6016C91,-320.6016 51,-320.6016 51,-320.6016 45,-320.6016 39,-314.6016 39,-308.6016 39,-308.6016 39,-283.3984 39,-283.3984 39,-277.3984 45,-271.3984 51,-271.3984 51,-271.3984 91,-271.3984 91,-271.3984 97,-271.3984 103,-277.3984 103,-283.3984 103,-283.3984 103,-308.6016 103,-308.6016 103,-314.6016 97,-320.6016 91,-320.6016"/>
<text text-anchor="middle" x="71" y="-290.6" font-family="Times,serif" font-size="18.00" fill="#000000">……</text>
<text text-anchor="start" x="22.7565" y="-325.3" font-family="Times,serif" font-size="15.00" fill="#000000">💬</text>
</g>
<!-- o3 -->
<g id="node7" class="node">
<title>o3</title>
<path fill="#ffffff" stroke="#cd0000" stroke-width="1.1" d="M115,-235.2C115,-235.2 85,-235.2 85,-235.2 79,-235.2 73,-229.2 73,-223.2 73,-223.2 73,-211.2 73,-211.2 73,-205.2 79,-199.2 85,-199.2 85,-199.2 115,-199.2 115,-199.2 121,-199.2 127,-205.2 127,-211.2 127,-211.2 127,-223.2 127,-223.2 127,-229.2 121,-235.2 115,-235.2"/>
<text text-anchor="middle" x="65.5039" y="-204.6" font-family="Times,serif" font-size="18.00" fill="#000000">⚡</text>
</g>
<!-- a3&#45;&gt;o3 -->
<!-- a3&#45;&gt;o3 -->
<g id="edge9" class="edge">
<title>a3-&gt;o3:n</title>
<path fill="none" stroke="#cd0000" stroke-width=".8" d="M82.7954,-271.2703C88.1898,-259.9608 94.1019,-247.5657 97.4009,-240.6491"/>
<polygon fill="#cd0000" stroke="#cd0000" stroke-width=".8" points="99.3123,-241.5196 100,-235.2 95.5215,-239.7114 99.3123,-241.5196"/>
<text text-anchor="start" x="47.0542" y="-258.9597" font-family="Times,serif" font-size="10.00" fill="#cd0000">objection !</text>
</g>
<!-- a4 -->
<g id="node4" class="node">
<title>a4</title>
<path fill="#ffffff" stroke="#008b00" stroke-width="1.1" d="M97,-163.0016C97,-163.0016 57,-163.0016 57,-163.0016 51,-163.0016 45,-157.0016 45,-151.0016 45,-151.0016 45,-125.7984 45,-125.7984 45,-119.7984 51,-113.7984 57,-113.7984 57,-113.7984 97,-113.7984 97,-113.7984 103,-113.7984 109,-119.7984 109,-125.7984 109,-125.7984 109,-151.0016 109,-151.0016 109,-157.0016 103,-163.0016 97,-163.0016"/>
<text text-anchor="middle" x="77" y="-133" font-family="Times,serif" font-size="18.00" fill="#000000">……</text>
<text text-anchor="start" x="28.7565" y="-167.7" font-family="Times,serif" font-size="15.00" fill="#000000">💬</text>
</g>
<!-- c1 -->
<g id="node8" class="node">
<title>c1</title>
<polygon fill="#ffffff" stroke="#b3b3b3" stroke-width="1.1" points="128,-77.402 38,-77.402 38,-38.198 128,-38.198 128,-77.402"/>
<text text-anchor="middle" x="83" y="-52.4" font-family="Times,serif" font-size="18.00" fill="#000000">…………</text>
</g>
<!-- a4&#45;&gt;c1 -->
<!-- o1&#45;&gt;a2 -->
<!-- o1&#45;&gt;a2 -->
<g id="edge10" class="edge">
<title>o1-&gt;a2:n</title>
<path fill="none" stroke="#008b00" stroke-width=".8" d="M90.8434,-514.1181C84.9279,-503.4702 77.8866,-490.7959 73.9827,-483.7689"/>
<polygon fill="#008b00" stroke="#008b00" stroke-width=".8" points="75.7496,-482.6251 71,-478.4 72.0782,-484.6648 75.7496,-482.6251"/>
<text text-anchor="start" x="47.4496" y="-502.2435" font-family="Times,serif" font-size="11.00" fill="#008b00">réponse</text>
</g>
<!-- o2&#45;&gt;a3 -->
<!-- o2&#45;&gt;a3 -->
<g id="edge11" class="edge">
<title>o2-&gt;a3:n</title>
<path fill="none" stroke="#008b00" stroke-width=".8" d="M90.1819,-356.5181C84.4636,-345.8702 77.6571,-333.1959 73.8833,-326.1689"/>
<polygon fill="#008b00" stroke="#008b00" stroke-width=".8" points="75.6889,-325.0924 71,-320.8 71.9887,-327.0796 75.6889,-325.0924"/>
<text text-anchor="start" x="47.0691" y="-344.6435" font-family="Times,serif" font-size="11.00" fill="#008b00">réponse</text>
</g>
<!-- o3&#45;&gt;a4 -->
<!-- o3&#45;&gt;a4 -->
<g id="edge12" class="edge">
<title>o3-&gt;a4:n</title>
<path fill="none" stroke="#008b00" stroke-width=".8" d="M92.2132,-198.9181C87.7302,-188.3926 82.4037,-175.887 79.3909,-168.8135"/>
<polygon fill="#008b00" stroke="#008b00" stroke-width=".8" points="81.2833,-167.8972 77,-163.2 77.4192,-169.5431 81.2833,-167.8972"/>
<text text-anchor="start" x="50.8386" y="-187.1658" font-family="Times,serif" font-size="11.00" fill="#008b00">réponse</text>
</g>
</g>
</svg>