<?xml version="1.0" encoding="UTF-8" standalone="no"?><!DOCTYPE svg PUBLIC "-//W3C//DTD SVG 1.1//EN" "http://www.w3.org/Graphics/SVG/1.1/DTD/svg11.dtd"><!-- Generated by graphviz version 2.40.1 (20161225.0304)
 --><!-- Title: G Pages: 1 --><svg xmlns="http://www.w3.org/2000/svg" xmlns:xlink="http://www.w3.org/1999/xlink" width="165pt" height="221pt" viewBox="0.00 0.00 165.20 221.20">
<g id="graph0" class="graph" transform="scale(1 1) rotate(0) translate(21.6 199.6)">
<title>G</title>
<polygon fill="#fafafa" stroke="transparent" points="-21.6,21.6 -21.6,-199.6 143.6,-199.6 143.6,21.6 -21.6,21.6"/>
<!-- a1 -->
<g id="node1" class="node">
<title>a1</title>
<ellipse fill="#000000" stroke="#000000" cx="61" cy="-160" rx="27" ry="18"/>
</g>
<!-- b1 -->
<g id="node2" class="node">
<title>b1</title>
<ellipse fill="#8b0000" stroke="#000000" cx="27" cy="-89" rx="27" ry="18"/>
</g>
<!-- a1&#45;&gt;b1 -->
<g id="edge1" class="edge">
<title>a1-&gt;b1:n</title>
<path fill="none" stroke="#000000" d="M45.1944,-145.3427C38.3965,-137.7943 31.3427,-127.9155 28.4096,-117.1251"/>
<polygon fill="#000000" stroke="#000000" points="31.8455,-116.4218 27,-107 24.9124,-117.3871 31.8455,-116.4218"/>
</g>
<!-- b2 -->
<g id="node3" class="node">
<title>b2</title>
<ellipse fill="#8b0000" stroke="#000000" cx="95" cy="-89" rx="27" ry="18"/>
</g>
<!-- a1&#45;&gt;b2 -->
<g id="edge2" class="edge">
<title>a1-&gt;b2:n</title>
<path fill="none" stroke="#000000" d="M76.8056,-145.3427C83.6035,-137.7943 90.6573,-127.9155 93.5904,-117.1251"/>
<polygon fill="#000000" stroke="#000000" points="97.0876,-117.3871 95,-107 90.1545,-116.4218 97.0876,-117.3871"/>
</g>
<!-- c1 -->
<g id="node4" class="node">
<title>c1</title>
<polygon fill="#ffffff" stroke="#7f7f7f" points="54,-36 0,-36 0,0 54,0 54,-36"/>
</g>
<!-- b1&#45;&gt;c1 -->
<g id="edge3" class="edge">
<title>b1-&gt;c1</title>
<path fill="none" stroke="#000000" d="M27,-70.7157C27,-63.4022 27,-54.8023 27,-46.6945"/>
<polygon fill="#000000" stroke="#000000" points="30.5001,-46.469 27,-36.4691 23.5001,-46.4691 30.5001,-46.469"/>
</g>
<!-- c2 -->
<g id="node5" class="node">
<title>c2</title>
<polygon fill="#ffffff" stroke="#7f7f7f" points="122,-36 68,-36 68,0 122,0 122,-36"/>
</g>
<!-- b2&#45;&gt;c2 -->
<g id="edge4" class="edge">
<title>b2-&gt;c2</title>
<path fill="none" stroke="#000000" d="M95,-70.7157C95,-63.4022 95,-54.8023 95,-46.6945"/>
<polygon fill="#000000" stroke="#000000" points="98.5001,-46.469 95,-36.4691 91.5001,-46.4691 98.5001,-46.469"/>
</g>
</g>
</svg>