<?xml version="1.0" encoding="UTF-8" standalone="no"?><!DOCTYPE svg PUBLIC "-//W3C//DTD SVG 1.1//EN" "http://www.w3.org/Graphics/SVG/1.1/DTD/svg11.dtd"><!-- Generated by graphviz version 2.40.1 (20161225.0304)
 --><!-- Title: G Pages: 1 --><svg xmlns="http://www.w3.org/2000/svg" xmlns:xlink="http://www.w3.org/1999/xlink" width="375pt" height="2411pt" viewBox="0.00 0.00 374.67 2411.00">
<g id="graph0" class="graph" transform="scale(1 1) rotate(0) translate(4 2407)">
<title>G</title>
<polygon fill="#ffffff" stroke="transparent" points="-4,4 -4,-2407 370.6676,-2407 370.6676,4 -4,4"/>
<text text-anchor="start" x="141.5431" y="-2359.4" font-family="Times,serif" font-weight="bold" font-size="14.00" fill="#000000">Auteur,  </text>
<text text-anchor="start" x="190.9155" y="-2359.4" font-family="Times,serif" font-weight="bold" font-style="italic" font-size="14.00" fill="#000000">  Titre</text>
<text text-anchor="start" x="156.1164" y="-2340.4" font-family="Times,serif" font-size="14.00" fill="#000000">Sous-titre</text>
<g id="clust1" class="cluster">
<title>cluster</title>
<path fill="#cdc9c9" stroke="#cdc9c9" d="M111,-8C111,-8 255.6676,-8 255.6676,-8 261.6676,-8 267.6676,-14 267.6676,-20 267.6676,-20 267.6676,-2286 267.6676,-2286 267.6676,-2292 261.6676,-2298 255.6676,-2298 255.6676,-2298 111,-2298 111,-2298 105,-2298 99,-2292 99,-2286 99,-2286 99,-20 99,-20 99,-14 105,-8 111,-8"/>
</g>
<g id="clust2" class="cluster">
<title>cluster_0</title>
<path fill="#eee9e9" stroke="#cdc9c9" d="M148.3338,-2204C148.3338,-2204 218.3338,-2204 218.3338,-2204 224.3338,-2204 230.3338,-2210 230.3338,-2216 230.3338,-2216 230.3338,-2268 230.3338,-2268 230.3338,-2274 224.3338,-2280 218.3338,-2280 218.3338,-2280 148.3338,-2280 148.3338,-2280 142.3338,-2280 136.3338,-2274 136.3338,-2268 136.3338,-2268 136.3338,-2216 136.3338,-2216 136.3338,-2210 142.3338,-2204 148.3338,-2204"/>
</g>
<g id="clust3" class="cluster">
<title>cluster_1</title>
<path fill="#eee9e9" stroke="#cdc9c9" d="M138.3338,-1654C138.3338,-1654 228.3338,-1654 228.3338,-1654 234.3338,-1654 240.3338,-1660 240.3338,-1666 240.3338,-1666 240.3338,-2170 240.3338,-2170 240.3338,-2176 234.3338,-2182 228.3338,-2182 228.3338,-2182 138.3338,-2182 138.3338,-2182 132.3338,-2182 126.3338,-2176 126.3338,-2170 126.3338,-2170 126.3338,-1666 126.3338,-1666 126.3338,-1660 132.3338,-1654 138.3338,-1654"/>
</g>
<g id="clust5" class="cluster">
<title>cluster_2</title>
<path fill="#eee9e9" stroke="#cdc9c9" d="M138.3338,-1324C138.3338,-1324 228.3338,-1324 228.3338,-1324 234.3338,-1324 240.3338,-1330 240.3338,-1336 240.3338,-1336 240.3338,-1624 240.3338,-1624 240.3338,-1630 234.3338,-1636 228.3338,-1636 228.3338,-1636 138.3338,-1636 138.3338,-1636 132.3338,-1636 126.3338,-1630 126.3338,-1624 126.3338,-1624 126.3338,-1336 126.3338,-1336 126.3338,-1330 132.3338,-1324 138.3338,-1324"/>
</g>
<g id="clust7" class="cluster">
<title>cluster_3</title>
<path fill="#eee9e9" stroke="#cdc9c9" d="M138.3338,-778C138.3338,-778 228.3338,-778 228.3338,-778 234.3338,-778 240.3338,-784 240.3338,-790 240.3338,-790 240.3338,-1294 240.3338,-1294 240.3338,-1300 234.3338,-1306 228.3338,-1306 228.3338,-1306 138.3338,-1306 138.3338,-1306 132.3338,-1306 126.3338,-1300 126.3338,-1294 126.3338,-1294 126.3338,-790 126.3338,-790 126.3338,-784 132.3338,-778 138.3338,-778"/>
</g>
<g id="clust9" class="cluster">
<title>cluster_4</title>
<path fill="#eee9e9" stroke="#cdc9c9" d="M138.3338,-124C138.3338,-124 228.3338,-124 228.3338,-124 234.3338,-124 240.3338,-130 240.3338,-136 240.3338,-136 240.3338,-748 240.3338,-748 240.3338,-754 234.3338,-760 228.3338,-760 228.3338,-760 138.3338,-760 138.3338,-760 132.3338,-760 126.3338,-754 126.3338,-748 126.3338,-748 126.3338,-136 126.3338,-136 126.3338,-130 132.3338,-124 138.3338,-124"/>
</g>
<g id="clust11" class="cluster">
<title>cluster_5</title>
<path fill="#cdc9c9" stroke="#cdc9c9" d="M129,-26C129,-26 237.6676,-26 237.6676,-26 243.6676,-26 249.6676,-32 249.6676,-38 249.6676,-38 249.6676,-88 249.6676,-88 249.6676,-94 243.6676,-100 237.6676,-100 237.6676,-100 129,-100 129,-100 123,-100 117,-94 117,-88 117,-88 117,-38 117,-38 117,-32 123,-26 129,-26"/>
</g>
<!-- a -->
<g id="node1" class="node">
<title>a</title>
<path fill="#ffffff" stroke="#000000" stroke-width=".4" d="M198.3338,-2260C198.3338,-2260 168.3338,-2260 168.3338,-2260 162.3338,-2260 156.3338,-2254 156.3338,-2248 156.3338,-2248 156.3338,-2236 156.3338,-2236 156.3338,-2230 162.3338,-2224 168.3338,-2224 168.3338,-2224 198.3338,-2224 198.3338,-2224 204.3338,-2224 210.3338,-2230 210.3338,-2236 210.3338,-2236 210.3338,-2248 210.3338,-2248 210.3338,-2254 204.3338,-2260 198.3338,-2260"/>
</g>
<!-- b -->
<g id="node2" class="node">
<title>b</title>
<path fill="#ffffff" stroke="#000000" stroke-width=".4" d="M198.3338,-2152C198.3338,-2152 168.3338,-2152 168.3338,-2152 162.3338,-2152 156.3338,-2146 156.3338,-2140 156.3338,-2140 156.3338,-2128 156.3338,-2128 156.3338,-2122 162.3338,-2116 168.3338,-2116 168.3338,-2116 198.3338,-2116 198.3338,-2116 204.3338,-2116 210.3338,-2122 210.3338,-2128 210.3338,-2128 210.3338,-2140 210.3338,-2140 210.3338,-2146 204.3338,-2152 198.3338,-2152"/>
</g>
<!-- a&#45;&gt;b -->
<g id="edge5" class="edge">
<title>a-&gt;b</title>
<path fill="none" stroke="#000000" stroke-width=".4" d="M183.3338,-2223.7473C183.3338,-2203.235 183.3338,-2182.7226 183.3338,-2162.2103"/>
<polygon fill="#000000" stroke="#000000" stroke-width=".4" points="186.8339,-2162.1406 183.3338,-2152.1406 179.8339,-2162.1407 186.8339,-2162.1406"/>
</g>
<!-- a1 -->
<g id="node22" class="node">
<title>a1</title>
<path fill="#ffffff" stroke="#8b8989" stroke-width=".3" d="M354.6676,-2260C354.6676,-2260 324.6676,-2260 324.6676,-2260 318.6676,-2260 312.6676,-2254 312.6676,-2248 312.6676,-2248 312.6676,-2236 312.6676,-2236 312.6676,-2230 318.6676,-2224 324.6676,-2224 324.6676,-2224 354.6676,-2224 354.6676,-2224 360.6676,-2224 366.6676,-2230 366.6676,-2236 366.6676,-2236 366.6676,-2248 366.6676,-2248 366.6676,-2254 360.6676,-2260 354.6676,-2260"/>
</g>
<!-- a&#45;&gt;a1 -->
<g id="edge21" class="edge">
<title>a-&gt;a1</title>
<path fill="none" stroke="#8b8989" stroke-width=".5" d="M210.5651,-2242C239.1716,-2242 283.8989,-2242 312.4866,-2242"/>
</g>
<!-- c -->
<g id="node3" class="node">
<title>c</title>
<path fill="#ffffff" stroke="#000000" stroke-width=".4" d="M198.3338,-2044C198.3338,-2044 168.3338,-2044 168.3338,-2044 162.3338,-2044 156.3338,-2038 156.3338,-2032 156.3338,-2032 156.3338,-2020 156.3338,-2020 156.3338,-2014 162.3338,-2008 168.3338,-2008 168.3338,-2008 198.3338,-2008 198.3338,-2008 204.3338,-2008 210.3338,-2014 210.3338,-2020 210.3338,-2020 210.3338,-2032 210.3338,-2032 210.3338,-2038 204.3338,-2044 198.3338,-2044"/>
</g>
<!-- c&#45;&gt;b -->
<g id="edge4" class="edge">
<title>c-&gt;b</title>
<path fill="none" stroke="#000000" stroke-width=".4" d="M183.3338,-2054.2103C183.3338,-2074.7226 183.3338,-2095.235 183.3338,-2115.7473"/>
<polygon fill="#000000" stroke="#000000" stroke-width=".4" points="186.8339,-2054.1406 183.3338,-2044.1406 179.8339,-2054.1407 186.8339,-2054.1406"/>
</g>
<!-- c1 -->
<g id="node25" class="node">
<title>c1</title>
<path fill="#ffffff" stroke="#8b8989" stroke-width=".3" d="M354.6676,-2071C354.6676,-2071 324.6676,-2071 324.6676,-2071 318.6676,-2071 312.6676,-2065 312.6676,-2059 312.6676,-2059 312.6676,-2047 312.6676,-2047 312.6676,-2041 318.6676,-2035 324.6676,-2035 324.6676,-2035 354.6676,-2035 354.6676,-2035 360.6676,-2035 366.6676,-2041 366.6676,-2047 366.6676,-2047 366.6676,-2059 366.6676,-2059 366.6676,-2065 360.6676,-2071 354.6676,-2071"/>
</g>
<!-- c&#45;&gt;c1 -->
<g id="edge26" class="edge">
<title>c-&gt;c1</title>
<path fill="none" stroke="#8b8989" stroke-width=".5" d="M210.5651,-2030.703C239.1716,-2035.6436 283.8989,-2043.3683 312.4866,-2048.3056"/>
</g>
<!-- c2 -->
<g id="node26" class="node">
<title>c2</title>
<path fill="#ffffff" stroke="#8b8989" stroke-width=".3" d="M354.6676,-2017C354.6676,-2017 324.6676,-2017 324.6676,-2017 318.6676,-2017 312.6676,-2011 312.6676,-2005 312.6676,-2005 312.6676,-1993 312.6676,-1993 312.6676,-1987 318.6676,-1981 324.6676,-1981 324.6676,-1981 354.6676,-1981 354.6676,-1981 360.6676,-1981 366.6676,-1987 366.6676,-1993 366.6676,-1993 366.6676,-2005 366.6676,-2005 366.6676,-2011 360.6676,-2017 354.6676,-2017"/>
</g>
<!-- c&#45;&gt;c2 -->
<g id="edge27" class="edge">
<title>c-&gt;c2</title>
<path fill="none" stroke="#8b8989" stroke-width=".5" d="M210.5651,-2021.297C239.1716,-2016.3564 283.8989,-2008.6317 312.4866,-2003.6944"/>
</g>
<!-- d -->
<g id="node4" class="node">
<title>d</title>
<path fill="#ffffff" stroke="#000000" stroke-width=".4" d="M198.3338,-1936C198.3338,-1936 168.3338,-1936 168.3338,-1936 162.3338,-1936 156.3338,-1930 156.3338,-1924 156.3338,-1924 156.3338,-1912 156.3338,-1912 156.3338,-1906 162.3338,-1900 168.3338,-1900 168.3338,-1900 198.3338,-1900 198.3338,-1900 204.3338,-1900 210.3338,-1906 210.3338,-1912 210.3338,-1912 210.3338,-1924 210.3338,-1924 210.3338,-1930 204.3338,-1936 198.3338,-1936"/>
</g>
<!-- d&#45;&gt;c -->
<g id="edge3" class="edge">
<title>d-&gt;c</title>
<path fill="none" stroke="#000000" stroke-width=".4" d="M183.3338,-1946.2103C183.3338,-1966.7226 183.3338,-1987.235 183.3338,-2007.7473"/>
<polygon fill="#000000" stroke="#000000" stroke-width=".4" points="186.8339,-1946.1406 183.3338,-1936.1406 179.8339,-1946.1407 186.8339,-1946.1406"/>
</g>
<!-- e -->
<g id="node5" class="node">
<title>e</title>
<path fill="#ffffff" stroke="#000000" stroke-width=".4" d="M198.3338,-1828C198.3338,-1828 168.3338,-1828 168.3338,-1828 162.3338,-1828 156.3338,-1822 156.3338,-1816 156.3338,-1816 156.3338,-1804 156.3338,-1804 156.3338,-1798 162.3338,-1792 168.3338,-1792 168.3338,-1792 198.3338,-1792 198.3338,-1792 204.3338,-1792 210.3338,-1798 210.3338,-1804 210.3338,-1804 210.3338,-1816 210.3338,-1816 210.3338,-1822 204.3338,-1828 198.3338,-1828"/>
</g>
<!-- e&#45;&gt;d -->
<g id="edge2" class="edge">
<title>e-&gt;d</title>
<path fill="none" stroke="#000000" stroke-width=".4" d="M183.3338,-1838.2103C183.3338,-1858.7226 183.3338,-1879.235 183.3338,-1899.7473"/>
<polygon fill="#000000" stroke="#000000" stroke-width=".4" points="186.8339,-1838.1406 183.3338,-1828.1406 179.8339,-1838.1407 186.8339,-1838.1406"/>
</g>
<!-- e1 -->
<g id="node29" class="node">
<title>e1</title>
<path fill="#ffffff" stroke="#8b8989" stroke-width=".3" d="M354.6676,-1855C354.6676,-1855 324.6676,-1855 324.6676,-1855 318.6676,-1855 312.6676,-1849 312.6676,-1843 312.6676,-1843 312.6676,-1831 312.6676,-1831 312.6676,-1825 318.6676,-1819 324.6676,-1819 324.6676,-1819 354.6676,-1819 354.6676,-1819 360.6676,-1819 366.6676,-1825 366.6676,-1831 366.6676,-1831 366.6676,-1843 366.6676,-1843 366.6676,-1849 360.6676,-1855 354.6676,-1855"/>
</g>
<!-- e&#45;&gt;e1 -->
<g id="edge32" class="edge">
<title>e-&gt;e1</title>
<path fill="none" stroke="#8b8989" stroke-width=".5" d="M210.5651,-1814.703C239.1716,-1819.6436 283.8989,-1827.3683 312.4866,-1832.3056"/>
</g>
<!-- e2 -->
<g id="node30" class="node">
<title>e2</title>
<path fill="#ffffff" stroke="#8b8989" stroke-width=".3" d="M354.6676,-1801C354.6676,-1801 324.6676,-1801 324.6676,-1801 318.6676,-1801 312.6676,-1795 312.6676,-1789 312.6676,-1789 312.6676,-1777 312.6676,-1777 312.6676,-1771 318.6676,-1765 324.6676,-1765 324.6676,-1765 354.6676,-1765 354.6676,-1765 360.6676,-1765 366.6676,-1771 366.6676,-1777 366.6676,-1777 366.6676,-1789 366.6676,-1789 366.6676,-1795 360.6676,-1801 354.6676,-1801"/>
</g>
<!-- e&#45;&gt;e2 -->
<g id="edge33" class="edge">
<title>e-&gt;e2</title>
<path fill="none" stroke="#8b8989" stroke-width=".5" d="M210.5651,-1805.297C239.1716,-1800.3564 283.8989,-1792.6317 312.4866,-1787.6944"/>
</g>
<!-- f -->
<g id="node6" class="node">
<title>f</title>
<path fill="#ffffff" stroke="#000000" stroke-width=".4" d="M198.3338,-1720C198.3338,-1720 168.3338,-1720 168.3338,-1720 162.3338,-1720 156.3338,-1714 156.3338,-1708 156.3338,-1708 156.3338,-1696 156.3338,-1696 156.3338,-1690 162.3338,-1684 168.3338,-1684 168.3338,-1684 198.3338,-1684 198.3338,-1684 204.3338,-1684 210.3338,-1690 210.3338,-1696 210.3338,-1696 210.3338,-1708 210.3338,-1708 210.3338,-1714 204.3338,-1720 198.3338,-1720"/>
</g>
<!-- f&#45;&gt;e -->
<g id="edge1" class="edge">
<title>f-&gt;e</title>
<path fill="none" stroke="#000000" stroke-width=".4" d="M183.3338,-1730.2103C183.3338,-1750.7226 183.3338,-1771.235 183.3338,-1791.7473"/>
<polygon fill="#000000" stroke="#000000" stroke-width=".4" points="186.8339,-1730.1406 183.3338,-1720.1406 179.8339,-1730.1407 186.8339,-1730.1406"/>
</g>
<!-- g -->
<g id="node7" class="node">
<title>g</title>
<path fill="#ffffff" stroke="#000000" stroke-width=".4" d="M198.3338,-1606C198.3338,-1606 168.3338,-1606 168.3338,-1606 162.3338,-1606 156.3338,-1600 156.3338,-1594 156.3338,-1594 156.3338,-1582 156.3338,-1582 156.3338,-1576 162.3338,-1570 168.3338,-1570 168.3338,-1570 198.3338,-1570 198.3338,-1570 204.3338,-1570 210.3338,-1576 210.3338,-1582 210.3338,-1582 210.3338,-1594 210.3338,-1594 210.3338,-1600 204.3338,-1606 198.3338,-1606"/>
</g>
<!-- g&#45;&gt;f -->
<g id="edge8" class="edge">
<title>g-&gt;f</title>
<path fill="none" stroke="#000000" stroke-width=".4" d="M183.3338,-1616.5397C183.3338,-1638.9179 183.3338,-1661.2961 183.3338,-1683.6743"/>
<polygon fill="#000000" stroke="#000000" stroke-width=".4" points="186.8339,-1616.2578 183.3338,-1606.2578 179.8339,-1616.2578 186.8339,-1616.2578"/>
</g>
<!-- g1 -->
<g id="node33" class="node">
<title>g1</title>
<path fill="#ffffff" stroke="#8b8989" stroke-width=".3" d="M354.6676,-1633C354.6676,-1633 324.6676,-1633 324.6676,-1633 318.6676,-1633 312.6676,-1627 312.6676,-1621 312.6676,-1621 312.6676,-1609 312.6676,-1609 312.6676,-1603 318.6676,-1597 324.6676,-1597 324.6676,-1597 354.6676,-1597 354.6676,-1597 360.6676,-1597 366.6676,-1603 366.6676,-1609 366.6676,-1609 366.6676,-1621 366.6676,-1621 366.6676,-1627 360.6676,-1633 354.6676,-1633"/>
</g>
<!-- g&#45;&gt;g1 -->
<g id="edge38" class="edge">
<title>g-&gt;g1</title>
<path fill="none" stroke="#8b8989" stroke-width=".5" d="M210.5651,-1592.703C239.1716,-1597.6436 283.8989,-1605.3683 312.4866,-1610.3056"/>
</g>
<!-- g2 -->
<g id="node34" class="node">
<title>g2</title>
<path fill="#ffffff" stroke="#8b8989" stroke-width=".3" d="M354.6676,-1579C354.6676,-1579 324.6676,-1579 324.6676,-1579 318.6676,-1579 312.6676,-1573 312.6676,-1567 312.6676,-1567 312.6676,-1555 312.6676,-1555 312.6676,-1549 318.6676,-1543 324.6676,-1543 324.6676,-1543 354.6676,-1543 354.6676,-1543 360.6676,-1543 366.6676,-1549 366.6676,-1555 366.6676,-1555 366.6676,-1567 366.6676,-1567 366.6676,-1573 360.6676,-1579 354.6676,-1579"/>
</g>
<!-- g&#45;&gt;g2 -->
<g id="edge39" class="edge">
<title>g-&gt;g2</title>
<path fill="none" stroke="#8b8989" stroke-width=".5" d="M210.5651,-1583.297C239.1716,-1578.3564 283.8989,-1570.6317 312.4866,-1565.6944"/>
</g>
<!-- h -->
<g id="node8" class="node">
<title>h</title>
<path fill="#ffffff" stroke="#000000" stroke-width=".4" d="M198.3338,-1498C198.3338,-1498 168.3338,-1498 168.3338,-1498 162.3338,-1498 156.3338,-1492 156.3338,-1486 156.3338,-1486 156.3338,-1474 156.3338,-1474 156.3338,-1468 162.3338,-1462 168.3338,-1462 168.3338,-1462 198.3338,-1462 198.3338,-1462 204.3338,-1462 210.3338,-1468 210.3338,-1474 210.3338,-1474 210.3338,-1486 210.3338,-1486 210.3338,-1492 204.3338,-1498 198.3338,-1498"/>
</g>
<!-- h&#45;&gt;g -->
<g id="edge7" class="edge">
<title>h-&gt;g</title>
<path fill="none" stroke="#000000" stroke-width=".4" d="M183.3338,-1508.2103C183.3338,-1528.7226 183.3338,-1549.235 183.3338,-1569.7473"/>
<polygon fill="#000000" stroke="#000000" stroke-width=".4" points="186.8339,-1508.1406 183.3338,-1498.1406 179.8339,-1508.1407 186.8339,-1508.1406"/>
</g>
<!-- i -->
<g id="node9" class="node">
<title>i</title>
<path fill="#ffffff" stroke="#000000" stroke-width=".4" d="M198.3338,-1390C198.3338,-1390 168.3338,-1390 168.3338,-1390 162.3338,-1390 156.3338,-1384 156.3338,-1378 156.3338,-1378 156.3338,-1366 156.3338,-1366 156.3338,-1360 162.3338,-1354 168.3338,-1354 168.3338,-1354 198.3338,-1354 198.3338,-1354 204.3338,-1354 210.3338,-1360 210.3338,-1366 210.3338,-1366 210.3338,-1378 210.3338,-1378 210.3338,-1384 204.3338,-1390 198.3338,-1390"/>
</g>
<!-- i&#45;&gt;h -->
<g id="edge6" class="edge">
<title>i-&gt;h</title>
<path fill="none" stroke="#000000" stroke-width=".4" d="M183.3338,-1400.2103C183.3338,-1420.7226 183.3338,-1441.235 183.3338,-1461.7473"/>
<polygon fill="#000000" stroke="#000000" stroke-width=".4" points="186.8339,-1400.1406 183.3338,-1390.1406 179.8339,-1400.1407 186.8339,-1400.1406"/>
</g>
<!-- i1 -->
<g id="node37" class="node">
<title>i1</title>
<path fill="#ffffff" stroke="#8b8989" stroke-width=".3" d="M354.6676,-1417C354.6676,-1417 324.6676,-1417 324.6676,-1417 318.6676,-1417 312.6676,-1411 312.6676,-1405 312.6676,-1405 312.6676,-1393 312.6676,-1393 312.6676,-1387 318.6676,-1381 324.6676,-1381 324.6676,-1381 354.6676,-1381 354.6676,-1381 360.6676,-1381 366.6676,-1387 366.6676,-1393 366.6676,-1393 366.6676,-1405 366.6676,-1405 366.6676,-1411 360.6676,-1417 354.6676,-1417"/>
</g>
<!-- i&#45;&gt;i1 -->
<g id="edge44" class="edge">
<title>i-&gt;i1</title>
<path fill="none" stroke="#8b8989" stroke-width=".5" d="M210.5651,-1376.703C239.1716,-1381.6436 283.8989,-1389.3683 312.4866,-1394.3056"/>
</g>
<!-- i2 -->
<g id="node38" class="node">
<title>i2</title>
<path fill="#ffffff" stroke="#8b8989" stroke-width=".3" d="M354.6676,-1363C354.6676,-1363 324.6676,-1363 324.6676,-1363 318.6676,-1363 312.6676,-1357 312.6676,-1351 312.6676,-1351 312.6676,-1339 312.6676,-1339 312.6676,-1333 318.6676,-1327 324.6676,-1327 324.6676,-1327 354.6676,-1327 354.6676,-1327 360.6676,-1327 366.6676,-1333 366.6676,-1339 366.6676,-1339 366.6676,-1351 366.6676,-1351 366.6676,-1357 360.6676,-1363 354.6676,-1363"/>
</g>
<!-- i&#45;&gt;i2 -->
<g id="edge45" class="edge">
<title>i-&gt;i2</title>
<path fill="none" stroke="#8b8989" stroke-width=".5" d="M210.5651,-1367.297C239.1716,-1362.3564 283.8989,-1354.6317 312.4866,-1349.6944"/>
</g>
<!-- j -->
<g id="node10" class="node">
<title>j</title>
<path fill="#ffffff" stroke="#000000" stroke-width=".4" d="M198.3338,-1276C198.3338,-1276 168.3338,-1276 168.3338,-1276 162.3338,-1276 156.3338,-1270 156.3338,-1264 156.3338,-1264 156.3338,-1252 156.3338,-1252 156.3338,-1246 162.3338,-1240 168.3338,-1240 168.3338,-1240 198.3338,-1240 198.3338,-1240 204.3338,-1240 210.3338,-1246 210.3338,-1252 210.3338,-1252 210.3338,-1264 210.3338,-1264 210.3338,-1270 204.3338,-1276 198.3338,-1276"/>
</g>
<!-- j&#45;&gt;i -->
<g id="edge13" class="edge">
<title>j-&gt;i</title>
<path fill="none" stroke="#000000" stroke-width=".4" d="M183.3338,-1286.5397C183.3338,-1308.9179 183.3338,-1331.2961 183.3338,-1353.6743"/>
<polygon fill="#000000" stroke="#000000" stroke-width=".4" points="186.8339,-1286.2578 183.3338,-1276.2578 179.8339,-1286.2578 186.8339,-1286.2578"/>
</g>
<!-- k -->
<g id="node11" class="node">
<title>k</title>
<path fill="#ffffff" stroke="#000000" stroke-width=".4" d="M198.3338,-1168C198.3338,-1168 168.3338,-1168 168.3338,-1168 162.3338,-1168 156.3338,-1162 156.3338,-1156 156.3338,-1156 156.3338,-1144 156.3338,-1144 156.3338,-1138 162.3338,-1132 168.3338,-1132 168.3338,-1132 198.3338,-1132 198.3338,-1132 204.3338,-1132 210.3338,-1138 210.3338,-1144 210.3338,-1144 210.3338,-1156 210.3338,-1156 210.3338,-1162 204.3338,-1168 198.3338,-1168"/>
</g>
<!-- k&#45;&gt;j -->
<g id="edge12" class="edge">
<title>k-&gt;j</title>
<path fill="none" stroke="#000000" stroke-width=".4" d="M183.3338,-1178.2103C183.3338,-1198.7226 183.3338,-1219.235 183.3338,-1239.7473"/>
<polygon fill="#000000" stroke="#000000" stroke-width=".4" points="186.8339,-1178.1406 183.3338,-1168.1406 179.8339,-1178.1407 186.8339,-1178.1406"/>
</g>
<!-- k1 -->
<g id="node41" class="node">
<title>k1</title>
<path fill="#ffffff" stroke="#8b8989" stroke-width=".3" d="M354.6676,-1222C354.6676,-1222 324.6676,-1222 324.6676,-1222 318.6676,-1222 312.6676,-1216 312.6676,-1210 312.6676,-1210 312.6676,-1198 312.6676,-1198 312.6676,-1192 318.6676,-1186 324.6676,-1186 324.6676,-1186 354.6676,-1186 354.6676,-1186 360.6676,-1186 366.6676,-1192 366.6676,-1198 366.6676,-1198 366.6676,-1210 366.6676,-1210 366.6676,-1216 360.6676,-1222 354.6676,-1222"/>
</g>
<!-- k&#45;&gt;k1 -->
<g id="edge51" class="edge">
<title>k-&gt;k1</title>
<path fill="none" stroke="#8b8989" stroke-width=".5" d="M210.5651,-1159.4061C239.1716,-1169.2872 283.8989,-1184.7367 312.4866,-1194.6113"/>
</g>
<!-- k2 -->
<g id="node42" class="node">
<title>k2</title>
<path fill="#ffffff" stroke="#8b8989" stroke-width=".3" d="M354.6676,-1168C354.6676,-1168 324.6676,-1168 324.6676,-1168 318.6676,-1168 312.6676,-1162 312.6676,-1156 312.6676,-1156 312.6676,-1144 312.6676,-1144 312.6676,-1138 318.6676,-1132 324.6676,-1132 324.6676,-1132 354.6676,-1132 354.6676,-1132 360.6676,-1132 366.6676,-1138 366.6676,-1144 366.6676,-1144 366.6676,-1156 366.6676,-1156 366.6676,-1162 360.6676,-1168 354.6676,-1168"/>
</g>
<!-- k&#45;&gt;k2 -->
<g id="edge52" class="edge">
<title>k-&gt;k2</title>
<path fill="none" stroke="#8b8989" stroke-width=".5" d="M210.5651,-1150C239.1716,-1150 283.8989,-1150 312.4866,-1150"/>
</g>
<!-- k3 -->
<g id="node43" class="node">
<title>k3</title>
<path fill="#ffffff" stroke="#8b8989" stroke-width=".3" d="M354.6676,-1114C354.6676,-1114 324.6676,-1114 324.6676,-1114 318.6676,-1114 312.6676,-1108 312.6676,-1102 312.6676,-1102 312.6676,-1090 312.6676,-1090 312.6676,-1084 318.6676,-1078 324.6676,-1078 324.6676,-1078 354.6676,-1078 354.6676,-1078 360.6676,-1078 366.6676,-1084 366.6676,-1090 366.6676,-1090 366.6676,-1102 366.6676,-1102 366.6676,-1108 360.6676,-1114 354.6676,-1114"/>
</g>
<!-- k&#45;&gt;k3 -->
<g id="edge53" class="edge">
<title>k-&gt;k3</title>
<path fill="none" stroke="#8b8989" stroke-width=".5" d="M210.5651,-1140.5939C239.1716,-1130.7128 283.8989,-1115.2633 312.4866,-1105.3887"/>
</g>
<!-- l -->
<g id="node12" class="node">
<title>l</title>
<path fill="#ffffff" stroke="#000000" stroke-width=".4" d="M198.3338,-1060C198.3338,-1060 168.3338,-1060 168.3338,-1060 162.3338,-1060 156.3338,-1054 156.3338,-1048 156.3338,-1048 156.3338,-1036 156.3338,-1036 156.3338,-1030 162.3338,-1024 168.3338,-1024 168.3338,-1024 198.3338,-1024 198.3338,-1024 204.3338,-1024 210.3338,-1030 210.3338,-1036 210.3338,-1036 210.3338,-1048 210.3338,-1048 210.3338,-1054 204.3338,-1060 198.3338,-1060"/>
</g>
<!-- l&#45;&gt;k -->
<g id="edge11" class="edge">
<title>l-&gt;k</title>
<path fill="none" stroke="#000000" stroke-width=".4" d="M183.3338,-1070.2103C183.3338,-1090.7226 183.3338,-1111.235 183.3338,-1131.7473"/>
<polygon fill="#000000" stroke="#000000" stroke-width=".4" points="186.8339,-1070.1406 183.3338,-1060.1406 179.8339,-1070.1407 186.8339,-1070.1406"/>
</g>
<!-- m -->
<g id="node13" class="node">
<title>m</title>
<path fill="#ffffff" stroke="#000000" stroke-width=".4" d="M198.3338,-952C198.3338,-952 168.3338,-952 168.3338,-952 162.3338,-952 156.3338,-946 156.3338,-940 156.3338,-940 156.3338,-928 156.3338,-928 156.3338,-922 162.3338,-916 168.3338,-916 168.3338,-916 198.3338,-916 198.3338,-916 204.3338,-916 210.3338,-922 210.3338,-928 210.3338,-928 210.3338,-940 210.3338,-940 210.3338,-946 204.3338,-952 198.3338,-952"/>
</g>
<!-- m&#45;&gt;l -->
<g id="edge10" class="edge">
<title>m-&gt;l</title>
<path fill="none" stroke="#000000" stroke-width=".4" d="M183.3338,-962.2103C183.3338,-982.7226 183.3338,-1003.235 183.3338,-1023.7473"/>
<polygon fill="#000000" stroke="#000000" stroke-width=".4" points="186.8339,-962.1406 183.3338,-952.1406 179.8339,-962.1407 186.8339,-962.1406"/>
</g>
<!-- m1 -->
<g id="node46" class="node">
<title>m1</title>
<path fill="#ffffff" stroke="#8b8989" stroke-width=".3" d="M354.6676,-1006C354.6676,-1006 324.6676,-1006 324.6676,-1006 318.6676,-1006 312.6676,-1000 312.6676,-994 312.6676,-994 312.6676,-982 312.6676,-982 312.6676,-976 318.6676,-970 324.6676,-970 324.6676,-970 354.6676,-970 354.6676,-970 360.6676,-970 366.6676,-976 366.6676,-982 366.6676,-982 366.6676,-994 366.6676,-994 366.6676,-1000 360.6676,-1006 354.6676,-1006"/>
</g>
<!-- m&#45;&gt;m1 -->
<g id="edge59" class="edge">
<title>m-&gt;m1</title>
<path fill="none" stroke="#8b8989" stroke-width=".5" d="M210.5651,-943.4061C239.1716,-953.2872 283.8989,-968.7367 312.4866,-978.6113"/>
</g>
<!-- m2 -->
<g id="node47" class="node">
<title>m2</title>
<path fill="#ffffff" stroke="#8b8989" stroke-width=".3" d="M354.6676,-952C354.6676,-952 324.6676,-952 324.6676,-952 318.6676,-952 312.6676,-946 312.6676,-940 312.6676,-940 312.6676,-928 312.6676,-928 312.6676,-922 318.6676,-916 324.6676,-916 324.6676,-916 354.6676,-916 354.6676,-916 360.6676,-916 366.6676,-922 366.6676,-928 366.6676,-928 366.6676,-940 366.6676,-940 366.6676,-946 360.6676,-952 354.6676,-952"/>
</g>
<!-- m&#45;&gt;m2 -->
<g id="edge60" class="edge">
<title>m-&gt;m2</title>
<path fill="none" stroke="#8b8989" stroke-width=".5" d="M210.5651,-934C239.1716,-934 283.8989,-934 312.4866,-934"/>
</g>
<!-- m3 -->
<g id="node48" class="node">
<title>m3</title>
<path fill="#ffffff" stroke="#8b8989" stroke-width=".3" d="M354.6676,-898C354.6676,-898 324.6676,-898 324.6676,-898 318.6676,-898 312.6676,-892 312.6676,-886 312.6676,-886 312.6676,-874 312.6676,-874 312.6676,-868 318.6676,-862 324.6676,-862 324.6676,-862 354.6676,-862 354.6676,-862 360.6676,-862 366.6676,-868 366.6676,-874 366.6676,-874 366.6676,-886 366.6676,-886 366.6676,-892 360.6676,-898 354.6676,-898"/>
</g>
<!-- m&#45;&gt;m3 -->
<g id="edge61" class="edge">
<title>m-&gt;m3</title>
<path fill="none" stroke="#8b8989" stroke-width=".5" d="M210.5651,-924.5939C239.1716,-914.7128 283.8989,-899.2633 312.4866,-889.3887"/>
</g>
<!-- n -->
<g id="node14" class="node">
<title>n</title>
<path fill="#ffffff" stroke="#000000" stroke-width=".4" d="M198.3338,-844C198.3338,-844 168.3338,-844 168.3338,-844 162.3338,-844 156.3338,-838 156.3338,-832 156.3338,-832 156.3338,-820 156.3338,-820 156.3338,-814 162.3338,-808 168.3338,-808 168.3338,-808 198.3338,-808 198.3338,-808 204.3338,-808 210.3338,-814 210.3338,-820 210.3338,-820 210.3338,-832 210.3338,-832 210.3338,-838 204.3338,-844 198.3338,-844"/>
</g>
<!-- n&#45;&gt;m -->
<g id="edge9" class="edge">
<title>n-&gt;m</title>
<path fill="none" stroke="#000000" stroke-width=".4" d="M183.3338,-854.2103C183.3338,-874.7226 183.3338,-895.235 183.3338,-915.7473"/>
<polygon fill="#000000" stroke="#000000" stroke-width=".4" points="186.8339,-854.1406 183.3338,-844.1406 179.8339,-854.1407 186.8339,-854.1406"/>
</g>
<!-- o -->
<g id="node15" class="node">
<title>o</title>
<path fill="#ffffff" stroke="#000000" stroke-width=".4" d="M198.3338,-730C198.3338,-730 168.3338,-730 168.3338,-730 162.3338,-730 156.3338,-724 156.3338,-718 156.3338,-718 156.3338,-706 156.3338,-706 156.3338,-700 162.3338,-694 168.3338,-694 168.3338,-694 198.3338,-694 198.3338,-694 204.3338,-694 210.3338,-700 210.3338,-706 210.3338,-706 210.3338,-718 210.3338,-718 210.3338,-724 204.3338,-730 198.3338,-730"/>
</g>
<!-- o&#45;&gt;n -->
<g id="edge19" class="edge">
<title>o-&gt;n</title>
<path fill="none" stroke="#000000" stroke-width=".4" d="M183.3338,-740.5397C183.3338,-762.9179 183.3338,-785.2961 183.3338,-807.6743"/>
<polygon fill="#000000" stroke="#000000" stroke-width=".4" points="186.8339,-740.2578 183.3338,-730.2578 179.8339,-740.2578 186.8339,-740.2578"/>
</g>
<!-- o1 -->
<g id="node52" class="node">
<title>o1</title>
<path fill="#ffffff" stroke="#8b8989" stroke-width=".3" d="M354.6676,-730C354.6676,-730 324.6676,-730 324.6676,-730 318.6676,-730 312.6676,-724 312.6676,-718 312.6676,-718 312.6676,-706 312.6676,-706 312.6676,-700 318.6676,-694 324.6676,-694 324.6676,-694 354.6676,-694 354.6676,-694 360.6676,-694 366.6676,-700 366.6676,-706 366.6676,-706 366.6676,-718 366.6676,-718 366.6676,-724 360.6676,-730 354.6676,-730"/>
</g>
<!-- o&#45;&gt;o1 -->
<g id="edge67" class="edge">
<title>o-&gt;o1</title>
<path fill="none" stroke="#8b8989" stroke-width=".5" d="M210.5651,-712C239.1716,-712 283.8989,-712 312.4866,-712"/>
</g>
<!-- p -->
<g id="node16" class="node">
<title>p</title>
<path fill="#ffffff" stroke="#000000" stroke-width=".4" d="M198.3338,-622C198.3338,-622 168.3338,-622 168.3338,-622 162.3338,-622 156.3338,-616 156.3338,-610 156.3338,-610 156.3338,-598 156.3338,-598 156.3338,-592 162.3338,-586 168.3338,-586 168.3338,-586 198.3338,-586 198.3338,-586 204.3338,-586 210.3338,-592 210.3338,-598 210.3338,-598 210.3338,-610 210.3338,-610 210.3338,-616 204.3338,-622 198.3338,-622"/>
</g>
<!-- p&#45;&gt;o -->
<g id="edge18" class="edge">
<title>p-&gt;o</title>
<path fill="none" stroke="#000000" stroke-width=".4" d="M183.3338,-632.2103C183.3338,-652.7226 183.3338,-673.235 183.3338,-693.7473"/>
<polygon fill="#000000" stroke="#000000" stroke-width=".4" points="186.8339,-632.1406 183.3338,-622.1406 179.8339,-632.1407 186.8339,-632.1406"/>
</g>
<!-- q -->
<g id="node17" class="node">
<title>q</title>
<path fill="#ffffff" stroke="#000000" stroke-width=".4" d="M198.3338,-514C198.3338,-514 168.3338,-514 168.3338,-514 162.3338,-514 156.3338,-508 156.3338,-502 156.3338,-502 156.3338,-490 156.3338,-490 156.3338,-484 162.3338,-478 168.3338,-478 168.3338,-478 198.3338,-478 198.3338,-478 204.3338,-478 210.3338,-484 210.3338,-490 210.3338,-490 210.3338,-502 210.3338,-502 210.3338,-508 204.3338,-514 198.3338,-514"/>
</g>
<!-- q&#45;&gt;p -->
<g id="edge17" class="edge">
<title>q-&gt;p</title>
<path fill="none" stroke="#000000" stroke-width=".4" d="M183.3338,-524.2103C183.3338,-544.7226 183.3338,-565.235 183.3338,-585.7473"/>
<polygon fill="#000000" stroke="#000000" stroke-width=".4" points="186.8339,-524.1406 183.3338,-514.1406 179.8339,-524.1407 186.8339,-524.1406"/>
</g>
<!-- r -->
<g id="node18" class="node">
<title>r</title>
<path fill="#ffffff" stroke="#000000" stroke-width=".4" d="M198.3338,-406C198.3338,-406 168.3338,-406 168.3338,-406 162.3338,-406 156.3338,-400 156.3338,-394 156.3338,-394 156.3338,-382 156.3338,-382 156.3338,-376 162.3338,-370 168.3338,-370 168.3338,-370 198.3338,-370 198.3338,-370 204.3338,-370 210.3338,-376 210.3338,-382 210.3338,-382 210.3338,-394 210.3338,-394 210.3338,-400 204.3338,-406 198.3338,-406"/>
</g>
<!-- r&#45;&gt;q -->
<g id="edge16" class="edge">
<title>r-&gt;q</title>
<path fill="none" stroke="#000000" stroke-width=".4" d="M183.3338,-416.2103C183.3338,-436.7226 183.3338,-457.235 183.3338,-477.7473"/>
<polygon fill="#000000" stroke="#000000" stroke-width=".4" points="186.8339,-416.1406 183.3338,-406.1406 179.8339,-416.1407 186.8339,-416.1406"/>
</g>
<!-- r1 -->
<g id="node56" class="node">
<title>r1</title>
<path fill="#ffffff" stroke="#8b8989" stroke-width=".3" d="M354.6676,-433C354.6676,-433 324.6676,-433 324.6676,-433 318.6676,-433 312.6676,-427 312.6676,-421 312.6676,-421 312.6676,-409 312.6676,-409 312.6676,-403 318.6676,-397 324.6676,-397 324.6676,-397 354.6676,-397 354.6676,-397 360.6676,-397 366.6676,-403 366.6676,-409 366.6676,-409 366.6676,-421 366.6676,-421 366.6676,-427 360.6676,-433 354.6676,-433"/>
</g>
<!-- r&#45;&gt;r1 -->
<g id="edge74" class="edge">
<title>r-&gt;r1</title>
<path fill="none" stroke="#8b8989" stroke-width=".5" d="M210.5651,-392.703C239.1716,-397.6436 283.8989,-405.3683 312.4866,-410.3056"/>
</g>
<!-- r2 -->
<g id="node57" class="node">
<title>r2</title>
<path fill="#ffffff" stroke="#8b8989" stroke-width=".3" d="M354.6676,-379C354.6676,-379 324.6676,-379 324.6676,-379 318.6676,-379 312.6676,-373 312.6676,-367 312.6676,-367 312.6676,-355 312.6676,-355 312.6676,-349 318.6676,-343 324.6676,-343 324.6676,-343 354.6676,-343 354.6676,-343 360.6676,-343 366.6676,-349 366.6676,-355 366.6676,-355 366.6676,-367 366.6676,-367 366.6676,-373 360.6676,-379 354.6676,-379"/>
</g>
<!-- r&#45;&gt;r2 -->
<g id="edge75" class="edge">
<title>r-&gt;r2</title>
<path fill="none" stroke="#8b8989" stroke-width=".5" d="M210.5651,-383.297C239.1716,-378.3564 283.8989,-370.6317 312.4866,-365.6944"/>
</g>
<!-- s -->
<g id="node19" class="node">
<title>s</title>
<path fill="#ffffff" stroke="#000000" stroke-width=".4" d="M198.3338,-298C198.3338,-298 168.3338,-298 168.3338,-298 162.3338,-298 156.3338,-292 156.3338,-286 156.3338,-286 156.3338,-274 156.3338,-274 156.3338,-268 162.3338,-262 168.3338,-262 168.3338,-262 198.3338,-262 198.3338,-262 204.3338,-262 210.3338,-268 210.3338,-274 210.3338,-274 210.3338,-286 210.3338,-286 210.3338,-292 204.3338,-298 198.3338,-298"/>
</g>
<!-- s&#45;&gt;r -->
<g id="edge15" class="edge">
<title>s-&gt;r</title>
<path fill="none" stroke="#000000" stroke-width=".4" d="M183.3338,-308.2103C183.3338,-328.7226 183.3338,-349.235 183.3338,-369.7473"/>
<polygon fill="#000000" stroke="#000000" stroke-width=".4" points="186.8339,-308.1406 183.3338,-298.1406 179.8339,-308.1407 186.8339,-308.1406"/>
</g>
<!-- t -->
<g id="node20" class="node">
<title>t</title>
<path fill="#ffffff" stroke="#000000" stroke-width=".4" d="M198.3338,-190C198.3338,-190 168.3338,-190 168.3338,-190 162.3338,-190 156.3338,-184 156.3338,-178 156.3338,-178 156.3338,-166 156.3338,-166 156.3338,-160 162.3338,-154 168.3338,-154 168.3338,-154 198.3338,-154 198.3338,-154 204.3338,-154 210.3338,-160 210.3338,-166 210.3338,-166 210.3338,-178 210.3338,-178 210.3338,-184 204.3338,-190 198.3338,-190"/>
</g>
<!-- t&#45;&gt;s -->
<g id="edge14" class="edge">
<title>t-&gt;s</title>
<path fill="none" stroke="#000000" stroke-width=".4" d="M183.3338,-200.2103C183.3338,-220.7226 183.3338,-241.235 183.3338,-261.7473"/>
<polygon fill="#000000" stroke="#000000" stroke-width=".4" points="186.8339,-200.1406 183.3338,-190.1406 179.8339,-200.1407 186.8339,-200.1406"/>
</g>
<!-- t1 -->
<g id="node59" class="node">
<title>t1</title>
<path fill="#ffffff" stroke="#8b8989" stroke-width=".3" d="M354.6676,-190C354.6676,-190 324.6676,-190 324.6676,-190 318.6676,-190 312.6676,-184 312.6676,-178 312.6676,-178 312.6676,-166 312.6676,-166 312.6676,-160 318.6676,-154 324.6676,-154 324.6676,-154 354.6676,-154 354.6676,-154 360.6676,-154 366.6676,-160 366.6676,-166 366.6676,-166 366.6676,-178 366.6676,-178 366.6676,-184 360.6676,-190 354.6676,-190"/>
</g>
<!-- t&#45;&gt;t1 -->
<g id="edge77" class="edge">
<title>t-&gt;t1</title>
<path fill="none" stroke="#8b8989" stroke-width=".5" d="M210.5651,-172C239.1716,-172 283.8989,-172 312.4866,-172"/>
</g>
<!-- conclusion -->
<g id="node21" class="node">
<title>conclusion</title>
<path fill="#ffffff" stroke="#000000" stroke-width=".8" d="M219.502,-82.3005C219.502,-82.3005 147.1656,-82.3005 147.1656,-82.3005 141.1656,-82.3005 135.1656,-76.3005 135.1656,-70.3005 135.1656,-70.3005 135.1656,-55.6995 135.1656,-55.6995 135.1656,-49.6995 141.1656,-43.6995 147.1656,-43.6995 147.1656,-43.6995 219.502,-43.6995 219.502,-43.6995 225.502,-43.6995 231.502,-49.6995 231.502,-55.6995 231.502,-55.6995 231.502,-70.3005 231.502,-70.3005 231.502,-76.3005 225.502,-82.3005 219.502,-82.3005"/>
<text text-anchor="middle" x="183.3338" y="-58.8" font-family="Times,serif" font-size="14.00" fill="#000000">Conclusion : </text>
</g>
<!-- conclusion&#45;&gt;t -->
<g id="edge20" class="edge">
<title>conclusion-&gt;t</title>
<path fill="none" stroke="#000000" stroke-width=".4" d="M183.3338,-92.6057C183.3338,-113.0164 183.3338,-133.4271 183.3338,-153.8378"/>
<polygon fill="#000000" stroke="#000000" stroke-width=".4" points="186.8339,-92.5859 183.3338,-82.5859 179.8339,-92.586 186.8339,-92.5859"/>
</g>
<!-- b1 -->
<g id="node23" class="node">
<title>b1</title>
<path fill="#ffffff" stroke="#8b8989" stroke-width=".3" d="M42,-2183C42,-2183 12,-2183 12,-2183 6,-2183 0,-2177 0,-2171 0,-2171 0,-2159 0,-2159 0,-2153 6,-2147 12,-2147 12,-2147 42,-2147 42,-2147 48,-2147 54,-2153 54,-2159 54,-2159 54,-2171 54,-2171 54,-2177 48,-2183 42,-2183"/>
</g>
<!-- b1&#45;&gt;b -->
<g id="edge23" class="edge">
<title>b1-&gt;b</title>
<path fill="none" stroke="#8b8989" stroke-width=".5" d="M54.2313,-2159.6002C82.8378,-2153.9277 127.5651,-2145.0586 156.1528,-2139.3898"/>
</g>
<!-- b2 -->
<g id="node24" class="node">
<title>b2</title>
<path fill="#ffffff" stroke="#8b8989" stroke-width=".3" d="M42,-2129C42,-2129 12,-2129 12,-2129 6,-2129 0,-2123 0,-2117 0,-2117 0,-2105 0,-2105 0,-2099 6,-2093 12,-2093 12,-2093 42,-2093 42,-2093 48,-2093 54,-2099 54,-2105 54,-2105 54,-2117 54,-2117 54,-2123 48,-2129 42,-2129"/>
</g>
<!-- b1&#45;&gt;b2 -->
<!-- b2&#45;&gt;b -->
<g id="edge24" class="edge">
<title>b2-&gt;b</title>
<path fill="none" stroke="#8b8989" stroke-width=".5" d="M54.2313,-2115.0063C82.8378,-2119.2149 127.5651,-2125.7953 156.1528,-2130.0011"/>
</g>
<!-- c1&#45;&gt;c2 -->
<!-- d1 -->
<g id="node27" class="node">
<title>d1</title>
<path fill="#ffffff" stroke="#8b8989" stroke-width=".3" d="M42,-1963C42,-1963 12,-1963 12,-1963 6,-1963 0,-1957 0,-1951 0,-1951 0,-1939 0,-1939 0,-1933 6,-1927 12,-1927 12,-1927 42,-1927 42,-1927 48,-1927 54,-1933 54,-1939 54,-1939 54,-1951 54,-1951 54,-1957 48,-1963 42,-1963"/>
</g>
<!-- d1&#45;&gt;d -->
<g id="edge29" class="edge">
<title>d1-&gt;d</title>
<path fill="none" stroke="#8b8989" stroke-width=".5" d="M54.2313,-1940.297C82.8378,-1935.3564 127.5651,-1927.6317 156.1528,-1922.6944"/>
</g>
<!-- d2 -->
<g id="node28" class="node">
<title>d2</title>
<path fill="#ffffff" stroke="#8b8989" stroke-width=".3" d="M42,-1909C42,-1909 12,-1909 12,-1909 6,-1909 0,-1903 0,-1897 0,-1897 0,-1885 0,-1885 0,-1879 6,-1873 12,-1873 12,-1873 42,-1873 42,-1873 48,-1873 54,-1879 54,-1885 54,-1885 54,-1897 54,-1897 54,-1903 48,-1909 42,-1909"/>
</g>
<!-- d1&#45;&gt;d2 -->
<!-- d2&#45;&gt;d -->
<g id="edge30" class="edge">
<title>d2-&gt;d</title>
<path fill="none" stroke="#8b8989" stroke-width=".5" d="M54.2313,-1895.703C82.8378,-1900.6436 127.5651,-1908.3683 156.1528,-1913.3056"/>
</g>
<!-- e1&#45;&gt;e2 -->
<!-- f1 -->
<g id="node31" class="node">
<title>f1</title>
<path fill="#ffffff" stroke="#8b8989" stroke-width=".3" d="M42,-1747C42,-1747 12,-1747 12,-1747 6,-1747 0,-1741 0,-1735 0,-1735 0,-1723 0,-1723 0,-1717 6,-1711 12,-1711 12,-1711 42,-1711 42,-1711 48,-1711 54,-1717 54,-1723 54,-1723 54,-1735 54,-1735 54,-1741 48,-1747 42,-1747"/>
</g>
<!-- f1&#45;&gt;f -->
<g id="edge35" class="edge">
<title>f1-&gt;f</title>
<path fill="none" stroke="#8b8989" stroke-width=".5" d="M54.2313,-1724.297C82.8378,-1719.3564 127.5651,-1711.6317 156.1528,-1706.6944"/>
</g>
<!-- f2 -->
<g id="node32" class="node">
<title>f2</title>
<path fill="#ffffff" stroke="#8b8989" stroke-width=".3" d="M42,-1693C42,-1693 12,-1693 12,-1693 6,-1693 0,-1687 0,-1681 0,-1681 0,-1669 0,-1669 0,-1663 6,-1657 12,-1657 12,-1657 42,-1657 42,-1657 48,-1657 54,-1663 54,-1669 54,-1669 54,-1681 54,-1681 54,-1687 48,-1693 42,-1693"/>
</g>
<!-- f1&#45;&gt;f2 -->
<!-- f2&#45;&gt;f -->
<g id="edge36" class="edge">
<title>f2-&gt;f</title>
<path fill="none" stroke="#8b8989" stroke-width=".5" d="M54.2313,-1679.703C82.8378,-1684.6436 127.5651,-1692.3683 156.1528,-1697.3056"/>
</g>
<!-- g1&#45;&gt;g2 -->
<!-- h1 -->
<g id="node35" class="node">
<title>h1</title>
<path fill="#ffffff" stroke="#8b8989" stroke-width=".3" d="M42,-1525C42,-1525 12,-1525 12,-1525 6,-1525 0,-1519 0,-1513 0,-1513 0,-1501 0,-1501 0,-1495 6,-1489 12,-1489 12,-1489 42,-1489 42,-1489 48,-1489 54,-1495 54,-1501 54,-1501 54,-1513 54,-1513 54,-1519 48,-1525 42,-1525"/>
</g>
<!-- h1&#45;&gt;h -->
<g id="edge41" class="edge">
<title>h1-&gt;h</title>
<path fill="none" stroke="#8b8989" stroke-width=".5" d="M54.2313,-1502.297C82.8378,-1497.3564 127.5651,-1489.6317 156.1528,-1484.6944"/>
</g>
<!-- h2 -->
<g id="node36" class="node">
<title>h2</title>
<path fill="#ffffff" stroke="#8b8989" stroke-width=".3" d="M42,-1471C42,-1471 12,-1471 12,-1471 6,-1471 0,-1465 0,-1459 0,-1459 0,-1447 0,-1447 0,-1441 6,-1435 12,-1435 12,-1435 42,-1435 42,-1435 48,-1435 54,-1441 54,-1447 54,-1447 54,-1459 54,-1459 54,-1465 48,-1471 42,-1471"/>
</g>
<!-- h1&#45;&gt;h2 -->
<!-- h2&#45;&gt;h -->
<g id="edge42" class="edge">
<title>h2-&gt;h</title>
<path fill="none" stroke="#8b8989" stroke-width=".5" d="M54.2313,-1457.703C82.8378,-1462.6436 127.5651,-1470.3683 156.1528,-1475.3056"/>
</g>
<!-- i1&#45;&gt;i2 -->
<!-- j1 -->
<g id="node39" class="node">
<title>j1</title>
<path fill="#ffffff" stroke="#8b8989" stroke-width=".3" d="M42,-1303C42,-1303 12,-1303 12,-1303 6,-1303 0,-1297 0,-1291 0,-1291 0,-1279 0,-1279 0,-1273 6,-1267 12,-1267 12,-1267 42,-1267 42,-1267 48,-1267 54,-1273 54,-1279 54,-1279 54,-1291 54,-1291 54,-1297 48,-1303 42,-1303"/>
</g>
<!-- j1&#45;&gt;j -->
<g id="edge47" class="edge">
<title>j1-&gt;j</title>
<path fill="none" stroke="#8b8989" stroke-width=".5" d="M54.2313,-1280.297C82.8378,-1275.3564 127.5651,-1267.6317 156.1528,-1262.6944"/>
</g>
<!-- j2 -->
<g id="node40" class="node">
<title>j2</title>
<path fill="#ffffff" stroke="#8b8989" stroke-width=".3" d="M42,-1249C42,-1249 12,-1249 12,-1249 6,-1249 0,-1243 0,-1237 0,-1237 0,-1225 0,-1225 0,-1219 6,-1213 12,-1213 12,-1213 42,-1213 42,-1213 48,-1213 54,-1219 54,-1225 54,-1225 54,-1237 54,-1237 54,-1243 48,-1249 42,-1249"/>
</g>
<!-- j1&#45;&gt;j2 -->
<!-- j2&#45;&gt;j -->
<g id="edge48" class="edge">
<title>j2-&gt;j</title>
<path fill="none" stroke="#8b8989" stroke-width=".5" d="M54.2313,-1235.703C82.8378,-1240.6436 127.5651,-1248.3683 156.1528,-1253.3056"/>
</g>
<!-- k1&#45;&gt;k2 -->
<!-- k2&#45;&gt;k3 -->
<!-- l1 -->
<g id="node44" class="node">
<title>l1</title>
<path fill="#ffffff" stroke="#8b8989" stroke-width=".3" d="M42,-1087C42,-1087 12,-1087 12,-1087 6,-1087 0,-1081 0,-1075 0,-1075 0,-1063 0,-1063 0,-1057 6,-1051 12,-1051 12,-1051 42,-1051 42,-1051 48,-1051 54,-1057 54,-1063 54,-1063 54,-1075 54,-1075 54,-1081 48,-1087 42,-1087"/>
</g>
<!-- l1&#45;&gt;l -->
<g id="edge55" class="edge">
<title>l1-&gt;l</title>
<path fill="none" stroke="#8b8989" stroke-width=".5" d="M54.2313,-1064.297C82.8378,-1059.3564 127.5651,-1051.6317 156.1528,-1046.6944"/>
</g>
<!-- l2 -->
<g id="node45" class="node">
<title>l2</title>
<path fill="#ffffff" stroke="#8b8989" stroke-width=".3" d="M42,-1033C42,-1033 12,-1033 12,-1033 6,-1033 0,-1027 0,-1021 0,-1021 0,-1009 0,-1009 0,-1003 6,-997 12,-997 12,-997 42,-997 42,-997 48,-997 54,-1003 54,-1009 54,-1009 54,-1021 54,-1021 54,-1027 48,-1033 42,-1033"/>
</g>
<!-- l1&#45;&gt;l2 -->
<!-- l2&#45;&gt;l -->
<g id="edge56" class="edge">
<title>l2-&gt;l</title>
<path fill="none" stroke="#8b8989" stroke-width=".5" d="M54.2313,-1019.703C82.8378,-1024.6436 127.5651,-1032.3683 156.1528,-1037.3056"/>
</g>
<!-- m1&#45;&gt;m2 -->
<!-- m2&#45;&gt;m3 -->
<!-- n1 -->
<g id="node49" class="node">
<title>n1</title>
<path fill="#ffffff" stroke="#8b8989" stroke-width=".3" d="M42,-898C42,-898 12,-898 12,-898 6,-898 0,-892 0,-886 0,-886 0,-874 0,-874 0,-868 6,-862 12,-862 12,-862 42,-862 42,-862 48,-862 54,-868 54,-874 54,-874 54,-886 54,-886 54,-892 48,-898 42,-898"/>
</g>
<!-- n1&#45;&gt;n -->
<g id="edge64" class="edge">
<title>n1-&gt;n</title>
<path fill="none" stroke="#8b8989" stroke-width=".5" d="M54.2313,-870.5939C82.8378,-860.7128 127.5651,-845.2633 156.1528,-835.3887"/>
</g>
<!-- n2 -->
<g id="node50" class="node">
<title>n2</title>
<path fill="#ffffff" stroke="#8b8989" stroke-width=".3" d="M42,-844C42,-844 12,-844 12,-844 6,-844 0,-838 0,-832 0,-832 0,-820 0,-820 0,-814 6,-808 12,-808 12,-808 42,-808 42,-808 48,-808 54,-814 54,-820 54,-820 54,-832 54,-832 54,-838 48,-844 42,-844"/>
</g>
<!-- n1&#45;&gt;n2 -->
<!-- n2&#45;&gt;n -->
<g id="edge65" class="edge">
<title>n2-&gt;n</title>
<path fill="none" stroke="#8b8989" stroke-width=".5" d="M54.2313,-826C82.8378,-826 127.5651,-826 156.1528,-826"/>
</g>
<!-- n3 -->
<g id="node51" class="node">
<title>n3</title>
<path fill="#ffffff" stroke="#8b8989" stroke-width=".3" d="M42,-790C42,-790 12,-790 12,-790 6,-790 0,-784 0,-778 0,-778 0,-766 0,-766 0,-760 6,-754 12,-754 12,-754 42,-754 42,-754 48,-754 54,-760 54,-766 54,-766 54,-778 54,-778 54,-784 48,-790 42,-790"/>
</g>
<!-- n2&#45;&gt;n3 -->
<!-- n3&#45;&gt;n -->
<g id="edge66" class="edge">
<title>n3-&gt;n</title>
<path fill="none" stroke="#8b8989" stroke-width=".5" d="M54.2313,-781.4061C82.8378,-791.2872 127.5651,-806.7367 156.1528,-816.6113"/>
</g>
<!-- p1 -->
<g id="node53" class="node">
<title>p1</title>
<path fill="#ffffff" stroke="#8b8989" stroke-width=".3" d="M42,-676C42,-676 12,-676 12,-676 6,-676 0,-670 0,-664 0,-664 0,-652 0,-652 0,-646 6,-640 12,-640 12,-640 42,-640 42,-640 48,-640 54,-646 54,-652 54,-652 54,-664 54,-664 54,-670 48,-676 42,-676"/>
</g>
<!-- p1&#45;&gt;p -->
<g id="edge70" class="edge">
<title>p1-&gt;p</title>
<path fill="none" stroke="#8b8989" stroke-width=".5" d="M54.2313,-648.5939C82.8378,-638.7128 127.5651,-623.2633 156.1528,-613.3887"/>
</g>
<!-- p2 -->
<g id="node54" class="node">
<title>p2</title>
<path fill="#ffffff" stroke="#8b8989" stroke-width=".3" d="M42,-622C42,-622 12,-622 12,-622 6,-622 0,-616 0,-610 0,-610 0,-598 0,-598 0,-592 6,-586 12,-586 12,-586 42,-586 42,-586 48,-586 54,-592 54,-598 54,-598 54,-610 54,-610 54,-616 48,-622 42,-622"/>
</g>
<!-- p1&#45;&gt;p2 -->
<!-- p2&#45;&gt;p -->
<g id="edge71" class="edge">
<title>p2-&gt;p</title>
<path fill="none" stroke="#8b8989" stroke-width=".5" d="M54.2313,-604C82.8378,-604 127.5651,-604 156.1528,-604"/>
</g>
<!-- p3 -->
<g id="node55" class="node">
<title>p3</title>
<path fill="#ffffff" stroke="#8b8989" stroke-width=".3" d="M42,-568C42,-568 12,-568 12,-568 6,-568 0,-562 0,-556 0,-556 0,-544 0,-544 0,-538 6,-532 12,-532 12,-532 42,-532 42,-532 48,-532 54,-538 54,-544 54,-544 54,-556 54,-556 54,-562 48,-568 42,-568"/>
</g>
<!-- p2&#45;&gt;p3 -->
<!-- p3&#45;&gt;p -->
<g id="edge72" class="edge">
<title>p3-&gt;p</title>
<path fill="none" stroke="#8b8989" stroke-width=".5" d="M54.2313,-559.4061C82.8378,-569.2872 127.5651,-584.7367 156.1528,-594.6113"/>
</g>
<!-- r1&#45;&gt;r2 -->
<!-- s1 -->
<g id="node58" class="node">
<title>s1</title>
<path fill="#ffffff" stroke="#8b8989" stroke-width=".3" d="M42,-298C42,-298 12,-298 12,-298 6,-298 0,-292 0,-286 0,-286 0,-274 0,-274 0,-268 6,-262 12,-262 12,-262 42,-262 42,-262 48,-262 54,-268 54,-274 54,-274 54,-286 54,-286 54,-292 48,-298 42,-298"/>
</g>
<!-- s1&#45;&gt;s -->
<g id="edge76" class="edge">
<title>s1-&gt;s</title>
<path fill="none" stroke="#8b8989" stroke-width=".5" d="M54.2313,-280C82.8378,-280 127.5651,-280 156.1528,-280"/>
</g>
<!-- concl1 -->
<g id="node60" class="node">
<title>concl1</title>
<path fill="#ffffff" stroke="#8b8989" stroke-width=".3" d="M42,-81C42,-81 12,-81 12,-81 6,-81 0,-75 0,-69 0,-69 0,-57 0,-57 0,-51 6,-45 12,-45 12,-45 42,-45 42,-45 48,-45 54,-51 54,-57 54,-57 54,-69 54,-69 54,-75 48,-81 42,-81"/>
</g>
<!-- concl1&#45;&gt;conclusion -->
<g id="edge78" class="edge">
<title>concl1-&gt;conclusion</title>
<path fill="none" stroke="#8b8989" stroke-width=".5" d="M54.2313,-63C76.4516,-63 108.3985,-63 134.9528,-63"/>
</g>
</g>
</svg>