<?xml version="1.0" encoding="UTF-8" standalone="no"?><!DOCTYPE svg PUBLIC "-//W3C//DTD SVG 1.1//EN" "http://www.w3.org/Graphics/SVG/1.1/DTD/svg11.dtd"><!-- Generated by graphviz version 2.40.1 (20161225.0304)
 --><!-- Title: G Pages: 1 --><svg xmlns="http://www.w3.org/2000/svg" xmlns:xlink="http://www.w3.org/1999/xlink" width="356pt" height="879pt" viewBox="0.00 0.00 356.00 879.00">
<g id="graph0" class="graph" transform="scale(1 1) rotate(0) translate(4 875)">
<title>G</title>
<polygon fill="#ffffff" stroke="transparent" points="-4,4 -4,-875 352,-875 352,4 -4,4"/>
<text text-anchor="start" x="132.2093" y="-827.4" font-family="Times,serif" font-weight="bold" font-size="14.00" fill="#000000">Auteur,  </text>
<text text-anchor="start" x="181.5817" y="-827.4" font-family="Times,serif" font-weight="bold" font-style="italic" font-size="14.00" fill="#000000">  Titre</text>
<text text-anchor="start" x="146.7826" y="-808.4" font-family="Times,serif" font-size="14.00" fill="#000000">Sous-titre</text>
<g id="clust1" class="cluster">
<title>cluster</title>
<path fill="#cdc9c9" stroke="#cdc9c9" d="M111,-8C111,-8 237,-8 237,-8 243,-8 249,-14 249,-20 249,-20 249,-754 249,-754 249,-760 243,-766 237,-766 237,-766 111,-766 111,-766 105,-766 99,-760 99,-754 99,-754 99,-20 99,-20 99,-14 105,-8 111,-8"/>
</g>
<g id="clust2" class="cluster">
<title>cluster_0</title>
<path fill="#eee9e9" stroke="#cdc9c9" d="M139,-672C139,-672 209,-672 209,-672 215,-672 221,-678 221,-684 221,-684 221,-736 221,-736 221,-742 215,-748 209,-748 209,-748 139,-748 139,-748 133,-748 127,-742 127,-736 127,-736 127,-684 127,-684 127,-678 133,-672 139,-672"/>
</g>
<g id="clust3" class="cluster">
<title>cluster_1</title>
<path fill="#eee9e9" stroke="#cdc9c9" d="M129,-122C129,-122 219,-122 219,-122 225,-122 231,-128 231,-134 231,-134 231,-638 231,-638 231,-644 225,-650 219,-650 219,-650 129,-650 129,-650 123,-650 117,-644 117,-638 117,-638 117,-134 117,-134 117,-128 123,-122 129,-122"/>
</g>
<g id="clust5" class="cluster">
<title>cluster_5</title>
<path fill="#cdc9c9" stroke="#cdc9c9" d="M141,-26C141,-26 207,-26 207,-26 213,-26 219,-32 219,-38 219,-38 219,-86 219,-86 219,-92 213,-98 207,-98 207,-98 141,-98 141,-98 135,-98 129,-92 129,-86 129,-86 129,-38 129,-38 129,-32 135,-26 141,-26"/>
</g>
<!-- a -->
<g id="node1" class="node">
<title>a</title>
<path fill="#ffffff" stroke="#000000" stroke-width=".4" d="M189,-728C189,-728 159,-728 159,-728 153,-728 147,-722 147,-716 147,-716 147,-704 147,-704 147,-698 153,-692 159,-692 159,-692 189,-692 189,-692 195,-692 201,-698 201,-704 201,-704 201,-716 201,-716 201,-722 195,-728 189,-728"/>
</g>
<!-- b -->
<g id="node2" class="node">
<title>b</title>
<path fill="#ffffff" stroke="#000000" stroke-width=".4" d="M189,-620C189,-620 159,-620 159,-620 153,-620 147,-614 147,-608 147,-608 147,-596 147,-596 147,-590 153,-584 159,-584 159,-584 189,-584 189,-584 195,-584 201,-590 201,-596 201,-596 201,-608 201,-608 201,-614 195,-620 189,-620"/>
</g>
<!-- a&#45;&gt;b -->
<g id="edge5" class="edge">
<title>a-&gt;b</title>
<path fill="none" stroke="#000000" stroke-width=".4" d="M174,-691.7473C174,-671.235 174,-650.7226 174,-630.2103"/>
<polygon fill="#000000" stroke="#000000" stroke-width=".4" points="177.5001,-630.1406 174,-620.1406 170.5001,-630.1407 177.5001,-630.1406"/>
</g>
<!-- a1 -->
<g id="node8" class="node">
<title>a1</title>
<path fill="#ffffff" stroke="#8b8989" stroke-width=".3" d="M336,-728C336,-728 306,-728 306,-728 300,-728 294,-722 294,-716 294,-716 294,-704 294,-704 294,-698 300,-692 306,-692 306,-692 336,-692 336,-692 342,-692 348,-698 348,-704 348,-704 348,-716 348,-716 348,-722 342,-728 336,-728"/>
</g>
<!-- a&#45;&gt;a1 -->
<g id="edge7" class="edge">
<title>a-&gt;a1</title>
<path fill="none" stroke="#8b8989" stroke-width=".5" d="M201.3051,-710C227.7086,-710 267.4872,-710 293.8412,-710"/>
</g>
<!-- c -->
<g id="node3" class="node">
<title>c</title>
<path fill="#ffffff" stroke="#000000" stroke-width=".4" d="M189,-512C189,-512 159,-512 159,-512 153,-512 147,-506 147,-500 147,-500 147,-488 147,-488 147,-482 153,-476 159,-476 159,-476 189,-476 189,-476 195,-476 201,-482 201,-488 201,-488 201,-500 201,-500 201,-506 195,-512 189,-512"/>
</g>
<!-- c&#45;&gt;b -->
<g id="edge4" class="edge">
<title>c-&gt;b</title>
<path fill="none" stroke="#000000" stroke-width=".4" d="M174,-522.2103C174,-542.7226 174,-563.235 174,-583.7473"/>
<polygon fill="#000000" stroke="#000000" stroke-width=".4" points="177.5001,-522.1406 174,-512.1406 170.5001,-522.1407 177.5001,-522.1406"/>
</g>
<!-- c1 -->
<g id="node11" class="node">
<title>c1</title>
<path fill="#ffffff" stroke="#8b8989" stroke-width=".3" d="M336,-566C336,-566 306,-566 306,-566 300,-566 294,-560 294,-554 294,-554 294,-542 294,-542 294,-536 300,-530 306,-530 306,-530 336,-530 336,-530 342,-530 348,-536 348,-542 348,-542 348,-554 348,-554 348,-560 342,-566 336,-566"/>
</g>
<!-- c&#45;&gt;c1 -->
<g id="edge13" class="edge">
<title>c-&gt;c1</title>
<path fill="none" stroke="#8b8989" stroke-width=".5" d="M201.3051,-504.0304C227.7086,-513.7297 267.4872,-528.3422 293.8412,-538.0233"/>
</g>
<!-- c2 -->
<g id="node12" class="node">
<title>c2</title>
<path fill="#ffffff" stroke="#8b8989" stroke-width=".3" d="M336,-512C336,-512 306,-512 306,-512 300,-512 294,-506 294,-500 294,-500 294,-488 294,-488 294,-482 300,-476 306,-476 306,-476 336,-476 336,-476 342,-476 348,-482 348,-488 348,-488 348,-500 348,-500 348,-506 342,-512 336,-512"/>
</g>
<!-- c&#45;&gt;c2 -->
<g id="edge14" class="edge">
<title>c-&gt;c2</title>
<path fill="none" stroke="#8b8989" stroke-width=".5" d="M201.3051,-494C227.7086,-494 267.4872,-494 293.8412,-494"/>
</g>
<!-- c3 -->
<g id="node13" class="node">
<title>c3</title>
<path fill="#ffffff" stroke="#8b8989" stroke-width=".3" d="M336,-458C336,-458 306,-458 306,-458 300,-458 294,-452 294,-446 294,-446 294,-434 294,-434 294,-428 300,-422 306,-422 306,-422 336,-422 336,-422 342,-422 348,-428 348,-434 348,-434 348,-446 348,-446 348,-452 342,-458 336,-458"/>
</g>
<!-- c&#45;&gt;c3 -->
<g id="edge15" class="edge">
<title>c-&gt;c3</title>
<path fill="none" stroke="#8b8989" stroke-width=".5" d="M201.3051,-483.9696C227.7086,-474.2703 267.4872,-459.6578 293.8412,-449.9767"/>
</g>
<!-- d -->
<g id="node4" class="node">
<title>d</title>
<path fill="#ffffff" stroke="#000000" stroke-width=".4" d="M189,-404C189,-404 159,-404 159,-404 153,-404 147,-398 147,-392 147,-392 147,-380 147,-380 147,-374 153,-368 159,-368 159,-368 189,-368 189,-368 195,-368 201,-374 201,-380 201,-380 201,-392 201,-392 201,-398 195,-404 189,-404"/>
</g>
<!-- d&#45;&gt;c -->
<g id="edge3" class="edge">
<title>d-&gt;c</title>
<path fill="none" stroke="#000000" stroke-width=".4" d="M174,-414.2103C174,-434.7226 174,-455.235 174,-475.7473"/>
<polygon fill="#000000" stroke="#000000" stroke-width=".4" points="177.5001,-414.1406 174,-404.1406 170.5001,-414.1407 177.5001,-414.1406"/>
</g>
<!-- e -->
<g id="node5" class="node">
<title>e</title>
<path fill="#ffffff" stroke="#000000" stroke-width=".4" d="M189,-296C189,-296 159,-296 159,-296 153,-296 147,-290 147,-284 147,-284 147,-272 147,-272 147,-266 153,-260 159,-260 159,-260 189,-260 189,-260 195,-260 201,-266 201,-272 201,-272 201,-284 201,-284 201,-290 195,-296 189,-296"/>
</g>
<!-- e&#45;&gt;d -->
<g id="edge2" class="edge">
<title>e-&gt;d</title>
<path fill="none" stroke="#000000" stroke-width=".4" d="M174,-306.2103C174,-326.7226 174,-347.235 174,-367.7473"/>
<polygon fill="#000000" stroke="#000000" stroke-width=".4" points="177.5001,-306.1406 174,-296.1406 170.5001,-306.1407 177.5001,-306.1406"/>
</g>
<!-- e1 -->
<g id="node17" class="node">
<title>e1</title>
<path fill="#ffffff" stroke="#8b8989" stroke-width=".3" d="M336,-321C336,-321 306,-321 306,-321 300,-321 294,-315 294,-309 294,-309 294,-297 294,-297 294,-291 300,-285 306,-285 306,-285 336,-285 336,-285 342,-285 348,-291 348,-297 348,-297 348,-309 348,-309 348,-315 342,-321 336,-321"/>
</g>
<!-- e&#45;&gt;e1 -->
<g id="edge22" class="edge">
<title>e-&gt;e1</title>
<path fill="none" stroke="#8b8989" stroke-width=".5" d="M201.3051,-282.6437C227.7086,-287.1341 267.4872,-293.8992 293.8412,-298.3812"/>
</g>
<!-- e2 -->
<g id="node18" class="node">
<title>e2</title>
<path fill="#ffffff" stroke="#8b8989" stroke-width=".3" d="M336,-267C336,-267 306,-267 306,-267 300,-267 294,-261 294,-255 294,-255 294,-243 294,-243 294,-237 300,-231 306,-231 306,-231 336,-231 336,-231 342,-231 348,-237 348,-243 348,-243 348,-255 348,-255 348,-261 342,-267 336,-267"/>
</g>
<!-- e&#45;&gt;e2 -->
<g id="edge23" class="edge">
<title>e-&gt;e2</title>
<path fill="none" stroke="#8b8989" stroke-width=".5" d="M201.3051,-272.6133C227.7086,-267.4044 267.4872,-259.557 293.8412,-254.3579"/>
</g>
<!-- f -->
<g id="node6" class="node">
<title>f</title>
<path fill="#ffffff" stroke="#000000" stroke-width=".4" d="M189,-188C189,-188 159,-188 159,-188 153,-188 147,-182 147,-176 147,-176 147,-164 147,-164 147,-158 153,-152 159,-152 159,-152 189,-152 189,-152 195,-152 201,-158 201,-164 201,-164 201,-176 201,-176 201,-182 195,-188 189,-188"/>
</g>
<!-- f&#45;&gt;e -->
<g id="edge1" class="edge">
<title>f-&gt;e</title>
<path fill="none" stroke="#000000" stroke-width=".4" d="M174,-198.2103C174,-218.7226 174,-239.235 174,-259.7473"/>
<polygon fill="#000000" stroke="#000000" stroke-width=".4" points="177.5001,-198.1406 174,-188.1406 170.5001,-198.1407 177.5001,-198.1406"/>
</g>
<!-- conclusion -->
<g id="node7" class="node">
<title>conclusion</title>
<path fill="#ffffff" stroke="#000000" stroke-width=".8" d="M189,-80C189,-80 159,-80 159,-80 153,-80 147,-74 147,-68 147,-68 147,-56 147,-56 147,-50 153,-44 159,-44 159,-44 189,-44 189,-44 195,-44 201,-50 201,-56 201,-56 201,-68 201,-68 201,-74 195,-80 189,-80"/>
</g>
<!-- conclusion&#45;&gt;f -->
<g id="edge6" class="edge">
<title>conclusion-&gt;f</title>
<path fill="none" stroke="#000000" stroke-width=".4" d="M174,-90.2103C174,-110.7226 174,-131.235 174,-151.7473"/>
<polygon fill="#000000" stroke="#000000" stroke-width=".4" points="177.5001,-90.1406 174,-80.1406 170.5001,-90.1407 177.5001,-90.1406"/>
</g>
<!-- b1 -->
<g id="node9" class="node">
<title>b1</title>
<path fill="#ffffff" stroke="#8b8989" stroke-width=".3" d="M42,-647C42,-647 12,-647 12,-647 6,-647 0,-641 0,-635 0,-635 0,-623 0,-623 0,-617 6,-611 12,-611 12,-611 42,-611 42,-611 48,-611 54,-617 54,-623 54,-623 54,-635 54,-635 54,-641 48,-647 42,-647"/>
</g>
<!-- b1&#45;&gt;b -->
<g id="edge9" class="edge">
<title>b1-&gt;b</title>
<path fill="none" stroke="#8b8989" stroke-width=".5" d="M54.3051,-623.9848C80.7086,-619.1352 120.4872,-611.8289 146.8412,-606.9884"/>
</g>
<!-- b2 -->
<g id="node10" class="node">
<title>b2</title>
<path fill="#ffffff" stroke="#8b8989" stroke-width=".3" d="M42,-593C42,-593 12,-593 12,-593 6,-593 0,-587 0,-581 0,-581 0,-569 0,-569 0,-563 6,-557 12,-557 12,-557 42,-557 42,-557 48,-557 54,-563 54,-569 54,-569 54,-581 54,-581 54,-587 48,-593 42,-593"/>
</g>
<!-- b1&#45;&gt;b2 -->
<!-- b2&#45;&gt;b -->
<g id="edge10" class="edge">
<title>b2-&gt;b</title>
<path fill="none" stroke="#8b8989" stroke-width=".5" d="M54.3051,-580.0152C80.7086,-584.8648 120.4872,-592.1711 146.8412,-597.0116"/>
</g>
<!-- c1&#45;&gt;c2 -->
<!-- c2&#45;&gt;c3 -->
<!-- d1 -->
<g id="node14" class="node">
<title>d1</title>
<path fill="#ffffff" stroke="#8b8989" stroke-width=".3" d="M42,-458C42,-458 12,-458 12,-458 6,-458 0,-452 0,-446 0,-446 0,-434 0,-434 0,-428 6,-422 12,-422 12,-422 42,-422 42,-422 48,-422 54,-428 54,-434 54,-434 54,-446 54,-446 54,-452 48,-458 42,-458"/>
</g>
<!-- d1&#45;&gt;d -->
<g id="edge18" class="edge">
<title>d1-&gt;d</title>
<path fill="none" stroke="#8b8989" stroke-width=".5" d="M54.3051,-429.9696C80.7086,-420.2703 120.4872,-405.6578 146.8412,-395.9767"/>
</g>
<!-- d2 -->
<g id="node15" class="node">
<title>d2</title>
<path fill="#ffffff" stroke="#8b8989" stroke-width=".3" d="M42,-404C42,-404 12,-404 12,-404 6,-404 0,-398 0,-392 0,-392 0,-380 0,-380 0,-374 6,-368 12,-368 12,-368 42,-368 42,-368 48,-368 54,-374 54,-380 54,-380 54,-392 54,-392 54,-398 48,-404 42,-404"/>
</g>
<!-- d1&#45;&gt;d2 -->
<!-- d2&#45;&gt;d -->
<g id="edge19" class="edge">
<title>d2-&gt;d</title>
<path fill="none" stroke="#8b8989" stroke-width=".5" d="M54.3051,-386C80.7086,-386 120.4872,-386 146.8412,-386"/>
</g>
<!-- d3 -->
<g id="node16" class="node">
<title>d3</title>
<path fill="#ffffff" stroke="#8b8989" stroke-width=".3" d="M42,-350C42,-350 12,-350 12,-350 6,-350 0,-344 0,-338 0,-338 0,-326 0,-326 0,-320 6,-314 12,-314 12,-314 42,-314 42,-314 48,-314 54,-320 54,-326 54,-326 54,-338 54,-338 54,-344 48,-350 42,-350"/>
</g>
<!-- d2&#45;&gt;d3 -->
<!-- d3&#45;&gt;d -->
<g id="edge20" class="edge">
<title>d3-&gt;d</title>
<path fill="none" stroke="#8b8989" stroke-width=".5" d="M54.3051,-342.0304C80.7086,-351.7297 120.4872,-366.3422 146.8412,-376.0233"/>
</g>
<!-- e1&#45;&gt;e2 -->
<!-- f1 -->
<g id="node19" class="node">
<title>f1</title>
<path fill="#ffffff" stroke="#8b8989" stroke-width=".3" d="M42,-213C42,-213 12,-213 12,-213 6,-213 0,-207 0,-201 0,-201 0,-189 0,-189 0,-183 6,-177 12,-177 12,-177 42,-177 42,-177 48,-177 54,-183 54,-189 54,-189 54,-201 54,-201 54,-207 48,-213 42,-213"/>
</g>
<!-- f1&#45;&gt;f -->
<g id="edge25" class="edge">
<title>f1-&gt;f</title>
<path fill="none" stroke="#8b8989" stroke-width=".5" d="M54.3051,-190.3563C80.7086,-185.8659 120.4872,-179.1008 146.8412,-174.6188"/>
</g>
<!-- f2 -->
<g id="node20" class="node">
<title>f2</title>
<path fill="#ffffff" stroke="#8b8989" stroke-width=".3" d="M42,-159C42,-159 12,-159 12,-159 6,-159 0,-153 0,-147 0,-147 0,-135 0,-135 0,-129 6,-123 12,-123 12,-123 42,-123 42,-123 48,-123 54,-129 54,-135 54,-135 54,-147 54,-147 54,-153 48,-159 42,-159"/>
</g>
<!-- f1&#45;&gt;f2 -->
<!-- f2&#45;&gt;f -->
<g id="edge26" class="edge">
<title>f2-&gt;f</title>
<path fill="none" stroke="#8b8989" stroke-width=".5" d="M54.3051,-146.3867C80.7086,-151.5956 120.4872,-159.443 146.8412,-164.6421"/>
</g>
</g>
</svg>